<svg width="24" height="24" viewBox="0 0 24 24" fill="none" xmlns="http://www.w3.org/2000/svg">
<g clip-path="url(#clip0_81_53)">
<path d="M20.422 11.516C20.253 8.443 17.672 6 14.5 6C13.271 6 12.132 6.37 11.187 6.999C10.146 5.209 8.21301 4 5.99701 4C5.52901 4 5.05001 4.054 4.56301 4.167C5.91001 8 4.18001 10.583 1.22267e-05 9.979C-0.00598777 13.006 2.19701 15.447 5.02001 15.914C5.12401 18.185 7.01601 20 9.35401 20H19.645C22.051 20 24 18.084 24 15.722C24 13.621 22.455 11.875 20.422 11.516ZM5.40601 13.955C4.12101 13.763 3.02201 12.958 2.44201 11.83C5.35801 11.711 7.50501 8.984 6.89301 6.101C8.15201 6.391 9.17501 7.281 9.67101 8.447C9.03601 9.322 8.64001 10.375 8.57701 11.516C7.15801 11.767 5.98901 12.702 5.40601 13.955ZM19.646 18H9.35401C8.05701 18 7.00001 16.978 7.00001 15.722C7.00001 13.604 9.10401 13.125 10.488 13.21C10.438 11.854 10.625 8 14.5 8C18.271 8 18.729 11.771 18.512 13.209C20.021 13.104 22 13.646 22 15.722C22 16.978 20.943 18 19.646 18Z" fill="white"/>
</g>
<defs>
<clipPath id="clip0_81_53">
<rect width="24" height="24" fill="white"/>
</clipPath>
</defs>
</svg>
