<svg width="24" height="24" viewBox="0 0 24 24" fill="none" xmlns="http://www.w3.org/2000/svg">
<path d="M22 5C22 4.522 21.621 4 21 4H3C2.38 4 2 4.519 2 5V19C2 19.621 2.52 20 3 20H21C21.478 20 22 19.621 22 19V5ZM20.5 18.5H3.5V5.5H20.5V18.5ZM14.435 8.522L8.518 14.443V13.2C8.518 12.786 8.182 12.45 7.768 12.45C7.353 12.45 7.018 12.786 7.018 13.2V16.25C7.018 16.664 7.353 17 7.768 17H10.801C11.215 17 11.551 16.664 11.551 16.25C11.551 15.836 11.215 15.5 10.801 15.5H9.582L15.5 9.578V10.822C15.5 11.236 15.836 11.572 16.25 11.572C16.664 11.572 17 11.236 17 10.822C17 10.107 17 8.487 17 7.772C17 7.358 16.664 7.022 16.25 7.022C15.535 7.022 13.932 7.022 13.217 7.022C12.803 7.022 12.467 7.358 12.467 7.772C12.467 8.186 12.803 8.522 13.217 8.522H14.435Z" fill="white"/>
</svg>
