<svg width="24" height="24" viewBox="0 0 24 24" fill="none" xmlns="http://www.w3.org/2000/svg">
<path d="M10 13.2954C10.3596 13.7834 10.8183 14.1873 11.3452 14.4795C11.8719 14.7718 12.4545 14.9456 13.0532 14.9892C13.652 15.0327 14.253 14.9449 14.8155 14.7319C15.3778 14.5188 15.8886 14.1855 16.3131 13.7544L18.8249 11.2039C19.5874 10.4022 20.0093 9.32844 19.9998 8.21388C19.9903 7.09933 19.55 6.03317 18.7738 5.24503C17.9976 4.45689 16.9477 4.00984 15.85 4.00016C14.7524 3.99047 13.6948 4.41893 12.9053 5.19325L11.4653 6.64703" stroke="white" stroke-width="2" stroke-linecap="round" stroke-linejoin="round"/>
<path d="M14 10.7046C13.6405 10.2166 13.1817 9.81269 12.6549 9.52044C12.1281 9.22819 11.5455 9.0544 10.9468 9.01086C10.348 8.96732 9.74703 9.05504 9.18458 9.26807C8.62214 9.48112 8.11139 9.81449 7.68699 10.2456L5.17517 12.796C4.41259 13.5978 3.99062 14.6715 4.00016 15.7861C4.0097 16.9007 4.44998 17.9668 5.22616 18.7549C6.00235 19.5431 7.05234 19.9901 8.15 19.9998C9.24764 20.0095 10.3051 19.5811 11.0947 18.8068L12.5264 17.353" stroke="white" stroke-width="2" stroke-linecap="round" stroke-linejoin="round"/>
</svg>
