<svg width="24" height="24" viewBox="0 0 24 24" fill="none" xmlns="http://www.w3.org/2000/svg">
<path d="M13.5 4.75C15.9124 4.75 17.875 6.71263 17.875 9.12587C17.875 11.5374 15.9124 13.5009 13.5 13.5009C11.0876 13.5009 9.125 11.5374 9.125 9.12587C9.125 6.71263 11.0876 4.75 13.5 4.75V4.75ZM13.5 3C10.1173 3 7.375 5.74225 7.375 9.12587C7.375 12.5077 10.1173 15.2509 13.5 15.2509C16.8827 15.2509 19.625 12.5077 19.625 9.12587C19.625 5.74225 16.8827 3 13.5 3V3ZM19.0729 14.6839C18.638 15.1196 18.148 15.4985 17.6221 15.8231C20.1351 17.4629 21.4529 20.2707 21.9726 22.2509H5.009C5.5095 20.2471 6.80975 17.4357 9.36038 15.8126C8.83275 15.4854 8.34363 15.103 7.90963 14.6646C4.18388 17.3526 3 22.1074 3 24H24C24 22.1258 22.74 17.3876 19.0729 14.6839Z" fill="white"/>
</svg>
