<svg width="20" height="20" viewBox="0 0 20 20" fill="none" xmlns="http://www.w3.org/2000/svg">
<path d="M10 0C6.50168 0 3.33334 2.83583 3.33334 6.335C3.33334 9.56604 5.7993 13.3757 9.15091 18.6582C9.54503 19.2794 10.455 19.2794 10.8491 18.6582C14.2007 13.3757 16.6667 9.56604 16.6667 6.335C16.6667 2.83583 13.4992 0 10 0ZM10 9.16667C8.61918 9.16667 7.50001 8.0475 7.50001 6.66667C7.50001 5.28583 8.61918 4.16667 10 4.16667C11.3808 4.16667 12.5 5.28583 12.5 6.66667C12.5 8.0475 11.3808 9.16667 10 9.16667Z" fill="white"/>
</svg>
