<svg width="24" height="24" viewBox="0 0 24 24" fill="none" xmlns="http://www.w3.org/2000/svg">
<path d="M12 7.5V21M12 7.5C12.75 4.53937 15.5827 3.02766 21.75 3C21.8486 2.99963 21.9463 3.01877 22.0375 3.05633C22.1286 3.09389 22.2114 3.14912 22.2812 3.21884C22.3509 3.28856 22.4061 3.37139 22.4437 3.46255C22.4812 3.55371 22.5004 3.6514 22.5 3.75V17.25C22.5 17.4489 22.421 17.6397 22.2803 17.7803C22.1397 17.921 21.9489 18 21.75 18C15.75 18 13.432 19.2098 12 21C10.5764 19.2188 8.25001 18 2.25001 18C1.78688 18 1.50001 17.6227 1.50001 17.1595V3.75C1.49963 3.6514 1.51878 3.55371 1.55634 3.46255C1.5939 3.37139 1.64913 3.28856 1.71885 3.21884C1.78856 3.14912 1.87139 3.09389 1.96255 3.05633C2.05372 3.01877 2.15141 2.99963 2.25001 3C8.41735 3.02766 11.25 4.53937 12 7.5Z" stroke="white" stroke-linecap="round" stroke-linejoin="round"/>
</svg>
