<svg width="24" height="24" viewBox="0 0 24 24" fill="none" xmlns="http://www.w3.org/2000/svg">
<mask id="path-1-inside-1_388_890" fill="white">
<path fill-rule="evenodd" clip-rule="evenodd" d="M19 9.6319V21.0002H5V9.6319C5 9.63166 5 9.63143 5 9.6312C5.0004 5.96882 8.13425 3 12 3C15.8657 3 18.9996 5.96882 19 9.6312C19 9.63143 19 9.63166 19 9.6319Z"/>
</mask>
<path d="M19 21.0002V22.0002H20V21.0002H19ZM5 21.0002H4V22.0002H5V21.0002ZM5 9.6312L4 9.63109V9.6312H5ZM19 9.6312L20 9.6312L20 9.63109L19 9.6312ZM18 9.6319V21.0002H20V9.6319H18ZM19 20.0002H5V22.0002H19V20.0002ZM6 21.0002V9.6319H4V21.0002H6ZM6 9.6319C6 9.6319 6 9.6319 6 9.63189C6 9.63189 6 9.63189 6 9.63189C6 9.63189 6 9.63189 6 9.63189C6 9.63189 6 9.63189 6 9.63189C6 9.63189 6 9.63189 6 9.63189C6 9.63189 6 9.63189 6 9.63189C6 9.63189 6 9.63189 6 9.63189C6 9.63189 6 9.63189 6 9.63189C6 9.63188 6 9.63188 6 9.63188C6 9.63188 6 9.63188 6 9.63188C6 9.63188 6 9.63188 6 9.63188C6 9.63188 6 9.63188 6 9.63188C6 9.63188 6 9.63188 6 9.63188C6 9.63188 6 9.63188 6 9.63188C6 9.63188 6 9.63188 6 9.63188C6 9.63188 6 9.63187 6 9.63187C6 9.63187 6 9.63187 6 9.63187C6 9.63187 6 9.63187 6 9.63187C6 9.63187 6 9.63187 6 9.63187C6 9.63187 6 9.63187 6 9.63187C6 9.63187 6 9.63187 6 9.63187C6 9.63187 6 9.63187 6 9.63187C6 9.63187 6 9.63186 6 9.63186C6 9.63186 6 9.63186 6 9.63186C6 9.63186 6 9.63186 6 9.63186C6 9.63186 6 9.63186 6 9.63186C6 9.63186 6 9.63186 6 9.63186C6 9.63186 6 9.63186 6 9.63186C6 9.63186 6 9.63186 6 9.63186C6 9.63186 6 9.63186 6 9.63185C6 9.63185 6 9.63185 6 9.63185C6 9.63185 6 9.63185 6 9.63185C6 9.63185 6 9.63185 6 9.63185C6 9.63185 6 9.63185 6 9.63185C6 9.63185 6 9.63185 6 9.63185C6 9.63185 6 9.63185 6 9.63185C6 9.63185 6 9.63185 6 9.63185C6 9.63184 6 9.63184 6 9.63184C6 9.63184 6 9.63184 6 9.63184C6 9.63184 6 9.63184 6 9.63184C6 9.63184 6 9.63184 6 9.63184C6 9.63184 6 9.63184 6 9.63184C6 9.63184 6 9.63184 6 9.63184C6 9.63184 6 9.63184 6 9.63184C6 9.63184 6 9.63183 6 9.63183C6 9.63183 6 9.63183 6 9.63183C6 9.63183 6 9.63183 6 9.63183C6 9.63183 6 9.63183 6 9.63183C6 9.63183 6 9.63183 6 9.63183C6 9.63183 6 9.63183 6 9.63183C6 9.63183 6 9.63183 6 9.63183C6 9.63183 6 9.63183 6 9.63182C6 9.63182 6 9.63182 6 9.63182C6 9.63182 6 9.63182 6 9.63182C6 9.63182 6 9.63182 6 9.63182C6 9.63182 6 9.63182 6 9.63182C6 9.63182 6 9.63182 6 9.63182C6 9.63182 6 9.63182 6 9.63182C6 9.63182 6 9.63182 6 9.63182C6 9.63181 6 9.63181 6 9.63181C6 9.63181 6 9.63181 6 9.63181C6 9.63181 6 9.63181 6 9.63181C6 9.63181 6 9.63181 6 9.63181C6 9.63181 6 9.63181 6 9.63181C6 9.63181 6 9.63181 6 9.63181C6 9.63181 6 9.63181 6 9.63181C6 9.63181 6 9.6318 6 9.6318C6 9.6318 6 9.6318 6 9.6318C6 9.6318 6 9.6318 6 9.6318C6 9.6318 6 9.6318 6 9.6318C6 9.6318 6 9.6318 6 9.6318C6 9.6318 6 9.6318 6 9.6318C6 9.6318 6 9.6318 6 9.6318C6 9.6318 6 9.6318 6 9.63179C6 9.63179 6 9.63179 6 9.63179C6 9.63179 6 9.63179 6 9.63179C6 9.63179 6 9.63179 6 9.63179C6 9.63179 6 9.63179 6 9.63179C6 9.63179 6 9.63179 6 9.63179C6 9.63179 6 9.63179 6 9.63179C6 9.63179 6 9.63179 6 9.63179C6 9.63178 6 9.63178 6 9.63178C6 9.63178 6 9.63178 6 9.63178C6 9.63178 6 9.63178 6 9.63178C6 9.63178 6 9.63178 6 9.63178C6 9.63178 6 9.63178 6 9.63178C6 9.63178 6 9.63178 6 9.63178C6 9.63178 6 9.63178 6 9.63178C6 9.63178 6 9.63177 6 9.63177C6 9.63177 6 9.63177 6 9.63177C6 9.63177 6 9.63177 6 9.63177C6 9.63177 6 9.63177 6 9.63177C6 9.63177 6 9.63177 6 9.63177C6 9.63177 6 9.63177 6 9.63177C6 9.63177 6 9.63177 6 9.63177C6 9.63177 6 9.63177 6 9.63176C6 9.63176 6 9.63176 6 9.63176C6 9.63176 6 9.63176 6 9.63176C6 9.63176 6 9.63176 6 9.63176C6 9.63176 6 9.63176 6 9.63176C6 9.63176 6 9.63176 6 9.63176C6 9.63176 6 9.63176 6 9.63176C6 9.63176 6 9.63176 6 9.63176C6 9.63175 6 9.63175 6 9.63175C6 9.63175 6 9.63175 6 9.63175C6 9.63175 6 9.63175 6 9.63175C6 9.63175 6 9.63175 6 9.63175C6 9.63175 6 9.63175 6 9.63175C6 9.63175 6 9.63175 6 9.63175C6 9.63175 6 9.63175 6 9.63175C6 9.63175 6 9.63174 6 9.63174C6 9.63174 6 9.63174 6 9.63174C6 9.63174 6 9.63174 6 9.63174C6 9.63174 6 9.63174 6 9.63174C6 9.63174 6 9.63174 6 9.63174C6 9.63174 6 9.63174 6 9.63174C6 9.63174 6 9.63174 6 9.63174C6 9.63174 6 9.63173 6 9.63173C6 9.63173 6 9.63173 6 9.63173C6 9.63173 6 9.63173 6 9.63173C6 9.63173 6 9.63173 6 9.63173C6 9.63173 6 9.63173 6 9.63173C6 9.63173 6 9.63173 6 9.63173C6 9.63173 6 9.63173 6 9.63173C6 9.63173 6 9.63173 6 9.63172C6 9.63172 6 9.63172 6 9.63172C6 9.63172 6 9.63172 6 9.63172C6 9.63172 6 9.63172 6 9.63172C6 9.63172 6 9.63172 6 9.63172C6 9.63172 6 9.63172 6 9.63172C6 9.63172 6 9.63172 6 9.63172C6 9.63172 6 9.63172 6 9.63172C6 9.63171 6 9.63171 6 9.63171C6 9.63171 6 9.63171 6 9.63171C6 9.63171 6 9.63171 6 9.63171C6 9.63171 6 9.63171 6 9.63171C6 9.63171 6 9.63171 6 9.63171C6 9.63171 6 9.63171 6 9.63171C6 9.63171 6 9.63171 6 9.63171C6 9.63171 6 9.6317 6 9.6317C6 9.6317 6 9.6317 6 9.6317C6 9.6317 6 9.6317 6 9.6317C6 9.6317 6 9.6317 6 9.6317C6 9.6317 6 9.6317 6 9.6317C6 9.6317 6 9.6317 6 9.6317C6 9.6317 6 9.6317 6 9.6317C6 9.6317 6 9.6317 6 9.63169C6 9.63169 6 9.63169 6 9.63169C6 9.63169 6 9.63169 6 9.63169C6 9.63169 6 9.63169 6 9.63169C6 9.63169 6 9.63169 6 9.63169C6 9.63169 6 9.63169 6 9.63169C6 9.63169 6 9.63169 6 9.63169C6 9.63169 6 9.63169 6 9.63169C6 9.63168 6 9.63168 6 9.63168C6 9.63168 6 9.63168 6 9.63168C6 9.63168 6 9.63168 6 9.63168C6 9.63168 6 9.63168 6 9.63168C6 9.63168 6 9.63168 6 9.63168C6 9.63168 6 9.63168 6 9.63168C6 9.63168 6 9.63168 6 9.63168C6 9.63168 6 9.63167 6 9.63167C6 9.63167 6 9.63167 6 9.63167C6 9.63167 6 9.63167 6 9.63167C6 9.63167 6 9.63167 6 9.63167C6 9.63167 6 9.63167 6 9.63167C6 9.63167 6 9.63167 6 9.63167C6 9.63167 6 9.63167 6 9.63167C6 9.63167 6 9.63167 6 9.63166C6 9.63166 6 9.63166 6 9.63166C6 9.63166 6 9.63166 6 9.63166C6 9.63166 6 9.63166 6 9.63166C6 9.63166 6 9.63166 6 9.63166C6 9.63166 6 9.63166 6 9.63166C6 9.63166 6 9.63166 6 9.63166C6 9.63166 6 9.63166 6 9.63166C6 9.63165 6 9.63165 6 9.63165C6 9.63165 6 9.63165 6 9.63165C6 9.63165 6 9.63165 6 9.63165C6 9.63165 6 9.63165 6 9.63165C6 9.63165 6 9.63165 6 9.63165C6 9.63165 6 9.63165 6 9.63165C6 9.63165 6 9.63165 6 9.63165C6 9.63165 6 9.63164 6 9.63164C6 9.63164 6 9.63164 6 9.63164C6 9.63164 6 9.63164 6 9.63164C6 9.63164 6 9.63164 6 9.63164C6 9.63164 6 9.63164 6 9.63164C6 9.63164 6 9.63164 6 9.63164C6 9.63164 6 9.63164 6 9.63164C6 9.63164 6 9.63164 6 9.63163C6 9.63163 6 9.63163 6 9.63163C6 9.63163 6 9.63163 6 9.63163C6 9.63163 6 9.63163 6 9.63163C6 9.63163 6 9.63163 6 9.63163C6 9.63163 6 9.63163 6 9.63163C6 9.63163 6 9.63163 6 9.63163C6 9.63163 6 9.63163 6 9.63163C6 9.63162 6 9.63162 6 9.63162C6 9.63162 6 9.63162 6 9.63162C6 9.63162 6 9.63162 6 9.63162C6 9.63162 6 9.63162 6 9.63162C6 9.63162 6 9.63162 6 9.63162C6 9.63162 6 9.63162 6 9.63162C6 9.63162 6 9.63162 6 9.63162C6 9.63162 6 9.63161 6 9.63161C6 9.63161 6 9.63161 6 9.63161C6 9.63161 6 9.63161 6 9.63161C6 9.63161 6 9.63161 6 9.63161C6 9.63161 6 9.63161 6 9.63161C6 9.63161 6 9.63161 6 9.63161C6 9.63161 6 9.63161 6 9.63161C6 9.63161 6 9.63161 6 9.6316C6 9.6316 6 9.6316 6 9.6316C6 9.6316 6 9.6316 6 9.6316C6 9.6316 6 9.6316 6 9.6316C6 9.6316 6 9.6316 6 9.6316C6 9.6316 6 9.6316 6 9.6316C6 9.6316 6 9.6316 6 9.6316C6 9.6316 6 9.6316 6 9.6316C6 9.63159 6 9.63159 6 9.63159C6 9.63159 6 9.63159 6 9.63159C6 9.63159 6 9.63159 6 9.63159C6 9.63159 6 9.63159 6 9.63159C6 9.63159 6 9.63159 6 9.63159C6 9.63159 6 9.63159 6 9.63159C6 9.63159 6 9.63159 6 9.63159C6 9.63158 6 9.63158 6 9.63158C6 9.63158 6 9.63158 6 9.63158C6 9.63158 6 9.63158 6 9.63158C6 9.63158 6 9.63158 6 9.63158C6 9.63158 6 9.63158 6 9.63158C6 9.63158 6 9.63158 6 9.63158C6 9.63158 6 9.63158 6 9.63158C6 9.63158 6 9.63157 6 9.63157C6 9.63157 6 9.63157 6 9.63157C6 9.63157 6 9.63157 6 9.63157C6 9.63157 6 9.63157 6 9.63157C6 9.63157 6 9.63157 6 9.63157C6 9.63157 6 9.63157 6 9.63157C6 9.63157 6 9.63157 6 9.63157C6 9.63157 6 9.63157 6 9.63156C6 9.63156 6 9.63156 6 9.63156C6 9.63156 6 9.63156 6 9.63156C6 9.63156 6 9.63156 6 9.63156C6 9.63156 6 9.63156 6 9.63156C6 9.63156 6 9.63156 6 9.63156C6 9.63156 6 9.63156 6 9.63156C6 9.63156 6 9.63156 6 9.63156C6 9.63155 6 9.63155 6 9.63155C6 9.63155 6 9.63155 6 9.63155C6 9.63155 6 9.63155 6 9.63155C6 9.63155 6 9.63155 6 9.63155C6 9.63155 6 9.63155 6 9.63155C6 9.63155 6 9.63155 6 9.63155C6 9.63155 6 9.63155 6 9.63155C6 9.63155 6 9.63154 6 9.63154C6 9.63154 6 9.63154 6 9.63154C6 9.63154 6 9.63154 6 9.63154C6 9.63154 6 9.63154 6 9.63154C6 9.63154 6 9.63154 6 9.63154C6 9.63154 6 9.63154 6 9.63154C6 9.63154 6 9.63154 6 9.63154C6 9.63154 6 9.63154 6 9.63153C6 9.63153 6 9.63153 6 9.63153C6 9.63153 6 9.63153 6 9.63153C6 9.63153 6 9.63153 6 9.63153C6 9.63153 6 9.63153 6 9.63153C6 9.63153 6 9.63153 6 9.63153C6 9.63153 6 9.63153 6 9.63153C6 9.63153 6 9.63153 6 9.63153C6 9.63152 6 9.63152 6 9.63152C6 9.63152 6 9.63152 6 9.63152C6 9.63152 6 9.63152 6 9.63152C6 9.63152 6 9.63152 6 9.63152C6 9.63152 6 9.63152 6 9.63152C6 9.63152 6 9.63152 6 9.63152C6 9.63152 6 9.63152 6 9.63152C6 9.63152 6 9.63151 6 9.63151C6 9.63151 6 9.63151 6 9.63151C6 9.63151 6 9.63151 6 9.63151C6 9.63151 6 9.63151 6 9.63151C6 9.63151 6 9.63151 6 9.63151C6 9.63151 6 9.63151 6 9.63151C6 9.63151 6 9.63151 6 9.63151C6 9.63151 6 9.63151 6 9.6315C6 9.6315 6 9.6315 6 9.6315C6 9.6315 6 9.6315 6 9.6315C6 9.6315 6 9.6315 6 9.6315C6 9.6315 6 9.6315 6 9.6315C6 9.6315 6 9.6315 6 9.6315C6 9.6315 6 9.6315 6 9.6315C6 9.6315 6 9.6315 6 9.6315C6 9.63149 6 9.63149 6 9.63149C6 9.63149 6 9.63149 6 9.63149C6 9.63149 6 9.63149 6 9.63149C6 9.63149 6 9.63149 6 9.63149C6 9.63149 6 9.63149 6 9.63149C6 9.63149 6 9.63149 6 9.63149C6 9.63149 6 9.63149 6 9.63149C6 9.63149 6 9.63148 6 9.63148C6 9.63148 6 9.63148 6 9.63148C6 9.63148 6 9.63148 6 9.63148C6 9.63148 6 9.63148 6 9.63148C6 9.63148 6 9.63148 6 9.63148C6 9.63148 6 9.63148 6 9.63148C6 9.63148 6 9.63148 6 9.63148C6 9.63148 6 9.63148 6 9.63147C6 9.63147 6 9.63147 6 9.63147C6 9.63147 6 9.63147 6 9.63147C6 9.63147 6 9.63147 6 9.63147C6 9.63147 6 9.63147 6 9.63147C6 9.63147 6 9.63147 6 9.63147C6 9.63147 6 9.63147 6 9.63147C6 9.63147 6 9.63147 6 9.63147C6 9.63146 6 9.63146 6 9.63146C6 9.63146 6 9.63146 6 9.63146C6 9.63146 6 9.63146 6 9.63146C6 9.63146 6 9.63146 6 9.63146C6 9.63146 6 9.63146 6 9.63146C6 9.63146 6 9.63146 6 9.63146C6 9.63146 6 9.63146 6 9.63146C6 9.63146 6 9.63145 6 9.63145C6 9.63145 6 9.63145 6 9.63145C6 9.63145 6 9.63145 6 9.63145C6 9.63145 6 9.63145 6 9.63145C6 9.63145 6 9.63145 6 9.63145C6 9.63145 6 9.63145 6 9.63145C6 9.63145 6 9.63145 6 9.63145C6 9.63145 6 9.63145 6 9.63144C6 9.63144 6 9.63144 6 9.63144C6 9.63144 6 9.63144 6 9.63144C6 9.63144 6 9.63144 6 9.63144C6 9.63144 6 9.63144 6 9.63144C6 9.63144 6 9.63144 6 9.63144C6 9.63144 6 9.63144 6 9.63144C6 9.63144 6 9.63144 6 9.63143C6 9.63143 6 9.63143 6 9.63143C6 9.63143 6 9.63143 6 9.63143C6 9.63143 6 9.63143 6 9.63143C6 9.63143 6 9.63143 6 9.63143C6 9.63143 6 9.63143 6 9.63143C6 9.63143 6 9.63143 6 9.63143C6 9.63143 6 9.63143 6 9.63143C6 9.63142 6 9.63142 6 9.63142C6 9.63142 6 9.63142 6 9.63142C6 9.63142 6 9.63142 6 9.63142C6 9.63142 6 9.63142 6 9.63142C6 9.63142 6 9.63142 6 9.63142C6 9.63142 6 9.63142 6 9.63142C6 9.63142 6 9.63142 6 9.63142C6 9.63142 6 9.63141 6 9.63141C6 9.63141 6 9.63141 6 9.63141C6 9.63141 6 9.63141 6 9.63141C6 9.63141 6 9.63141 6 9.63141C6 9.63141 6 9.63141 6 9.63141C6 9.63141 6 9.63141 6 9.63141C6 9.63141 6 9.63141 6 9.63141C6 9.63141 6 9.63141 6 9.6314C6 9.6314 6 9.6314 6 9.6314C6 9.6314 6 9.6314 6 9.6314C6 9.6314 6 9.6314 6 9.6314C6 9.6314 6 9.6314 6 9.6314C6 9.6314 6 9.6314 6 9.6314C6 9.6314 6 9.6314 6 9.6314C6 9.6314 6 9.6314 6 9.6314C6 9.63139 6 9.63139 6 9.63139C6 9.63139 6 9.63139 6 9.63139C6 9.63139 6 9.63139 6 9.63139C6 9.63139 6 9.63139 6 9.63139C6 9.63139 6 9.63139 6 9.63139C6 9.63139 6 9.63139 6 9.63139C6 9.63139 6 9.63139 6 9.63139C6 9.63139 6 9.63138 6 9.63138C6 9.63138 6 9.63138 6 9.63138C6 9.63138 6 9.63138 6 9.63138C6 9.63138 6 9.63138 6 9.63138C6 9.63138 6 9.63138 6 9.63138C6 9.63138 6 9.63138 6 9.63138C6 9.63138 6 9.63138 6 9.63138C6 9.63138 6 9.63138 6 9.63137C6 9.63137 6 9.63137 6 9.63137C6 9.63137 6 9.63137 6 9.63137C6 9.63137 6 9.63137 6 9.63137C6 9.63137 6 9.63137 6 9.63137C6 9.63137 6 9.63137 6 9.63137C6 9.63137 6 9.63137 6 9.63137C6 9.63137 6 9.63137 6 9.63137C6 9.63136 6 9.63136 6 9.63136C6 9.63136 6 9.63136 6 9.63136C6 9.63136 6 9.63136 6 9.63136C6 9.63136 6 9.63136 6 9.63136C6 9.63136 6 9.63136 6 9.63136C6 9.63136 6 9.63136 6 9.63136C6 9.63136 6 9.63136 6 9.63136C6 9.63136 6 9.63135 6 9.63135C6 9.63135 6 9.63135 6 9.63135C6 9.63135 6 9.63135 6 9.63135C6 9.63135 6 9.63135 6 9.63135C6 9.63135 6 9.63135 6 9.63135C6 9.63135 6 9.63135 6 9.63135C6 9.63135 6 9.63135 6 9.63135C6 9.63135 6 9.63135 6 9.63134C6 9.63134 6 9.63134 6 9.63134C6 9.63134 6 9.63134 6 9.63134C6 9.63134 6 9.63134 6 9.63134C6 9.63134 6 9.63134 6 9.63134C6 9.63134 6 9.63134 6 9.63134C6 9.63134 6 9.63134 6 9.63134C6 9.63134 6 9.63134 6 9.63134C6 9.63133 6 9.63133 6 9.63133C6 9.63133 6 9.63133 6 9.63133C6 9.63133 6 9.63133 6 9.63133C6 9.63133 6 9.63133 6 9.63133C6 9.63133 6 9.63133 6 9.63133C6 9.63133 6 9.63133 6 9.63133C6 9.63133 6 9.63133 6 9.63133C6 9.63133 6 9.63132 6 9.63132C6 9.63132 6 9.63132 6 9.63132C6 9.63132 6 9.63132 6 9.63132C6 9.63132 6 9.63132 6 9.63132C6 9.63132 6 9.63132 6 9.63132C6 9.63132 6 9.63132 6 9.63132C6 9.63132 6 9.63132 6 9.63132C6 9.63132 6 9.63132 6 9.63131C6 9.63131 6 9.63131 6 9.63131C6 9.63131 6 9.63131 6 9.63131C6 9.63131 6 9.63131 6 9.63131C6 9.63131 6 9.63131 6 9.63131C6 9.63131 6 9.63131 6 9.63131C6 9.63131 6 9.63131 6 9.63131C6 9.63131 6 9.63131 6 9.63131C6 9.6313 6 9.6313 6 9.6313C6 9.6313 6 9.6313 6 9.6313C6 9.6313 6 9.6313 6 9.6313C6 9.6313 6 9.6313 6 9.6313C6 9.6313 6 9.6313 6 9.6313C6 9.6313 6 9.6313 6 9.6313C6 9.6313 6 9.6313 6 9.6313C6 9.6313 6 9.63129 6 9.63129C6 9.63129 6 9.63129 6 9.63129C6 9.63129 6 9.63129 6 9.63129C6 9.63129 6 9.63129 6 9.63129C6 9.63129 6 9.63129 6 9.63129C6 9.63129 6 9.63129 6 9.63129C6 9.63129 6 9.63129 6 9.63129C6 9.63129 6 9.63128 6 9.63128C6 9.63128 6 9.63128 6 9.63128C6 9.63128 6 9.63128 6 9.63128C6 9.63128 6 9.63128 6 9.63128C6 9.63128 6 9.63128 6 9.63128C6 9.63128 6 9.63128 6 9.63128C6 9.63128 6 9.63128 6 9.63128C6 9.63128 6 9.63128 6 9.63127C6 9.63127 6 9.63127 6 9.63127C6 9.63127 6 9.63127 6 9.63127C6 9.63127 6 9.63127 6 9.63127C6 9.63127 6 9.63127 6 9.63127C6 9.63127 6 9.63127 6 9.63127C6 9.63127 6 9.63127 6 9.63127C6 9.63127 6 9.63127 6 9.63127C6 9.63126 6 9.63126 6 9.63126C6 9.63126 6 9.63126 6 9.63126C6 9.63126 6 9.63126 6 9.63126C6 9.63126 6 9.63126 6 9.63126C6 9.63126 6 9.63126 6 9.63126C6 9.63126 6 9.63126 6 9.63126C6 9.63126 6 9.63126 6 9.63126C6 9.63126 6 9.63125 6 9.63125C6 9.63125 6 9.63125 6 9.63125C6 9.63125 6 9.63125 6 9.63125C6 9.63125 6 9.63125 6 9.63125C6 9.63125 6 9.63125 6 9.63125C6 9.63125 6 9.63125 6 9.63125C6 9.63125 6 9.63125 6 9.63125C6 9.63125 6 9.63125 6 9.63124C6 9.63124 6 9.63124 6 9.63124C6 9.63124 6 9.63124 6 9.63124C6 9.63124 6 9.63124 6 9.63124C6 9.63124 6 9.63124 6 9.63124C6 9.63124 6 9.63124 6 9.63124C6 9.63124 6 9.63124 6 9.63124C6 9.63124 6 9.63124 6 9.63124C6 9.63123 6 9.63123 6 9.63123C6 9.63123 6 9.63123 6 9.63123C6 9.63123 6 9.63123 6 9.63123C6 9.63123 6 9.63123 6 9.63123C6 9.63123 6 9.63123 6 9.63123C6 9.63123 6 9.63123 6 9.63123C6 9.63123 6 9.63123 6 9.63123C6 9.63123 6 9.63122 6 9.63122C6 9.63122 6 9.63122 6 9.63122C6 9.63122 6 9.63122 6 9.63122C6 9.63122 6 9.63122 6 9.63122C6 9.63122 6 9.63122 6 9.63122C6 9.63122 6 9.63122 6 9.63122C6 9.63122 6 9.63122 6 9.63122C6 9.63122 6 9.63122 6 9.63121C6 9.63121 6 9.63121 6 9.63121C6 9.63121 6 9.63121 6 9.63121C6 9.63121 6 9.63121 6 9.63121C6 9.63121 6 9.63121 6 9.63121C6 9.63121 6 9.63121 6 9.63121C6 9.63121 6 9.63121 6 9.63121C6 9.63121 6 9.63121 6 9.63121C6 9.6312 6 9.6312 6 9.6312C6 9.6312 6 9.6312 6 9.6312C6 9.6312 6 9.6312 6 9.6312C6 9.6312 6 9.6312 6 9.6312C6 9.6312 6 9.6312 6 9.6312C6 9.6312 6 9.6312 6 9.6312C6 9.6312 6 9.6312 6 9.6312H4C4 9.6312 4 9.6312 4 9.6312C4 9.6312 4 9.6312 4 9.6312C4 9.6312 4 9.6312 4 9.6312C4 9.6312 4 9.6312 4 9.6312C4 9.6312 4 9.6312 4 9.6312C4 9.6312 4 9.6312 4 9.6312C4 9.6312 4 9.6312 4 9.63121C4 9.63121 4 9.63121 4 9.63121C4 9.63121 4 9.63121 4 9.63121C4 9.63121 4 9.63121 4 9.63121C4 9.63121 4 9.63121 4 9.63121C4 9.63121 4 9.63121 4 9.63121C4 9.63121 4 9.63121 4 9.63121C4 9.63121 4 9.63121 4 9.63121C4 9.63122 4 9.63122 4 9.63122C4 9.63122 4 9.63122 4 9.63122C4 9.63122 4 9.63122 4 9.63122C4 9.63122 4 9.63122 4 9.63122C4 9.63122 4 9.63122 4 9.63122C4 9.63122 4 9.63122 4 9.63122C4 9.63122 4 9.63122 4 9.63122C4 9.63122 4 9.63123 4 9.63123C4 9.63123 4 9.63123 4 9.63123C4 9.63123 4 9.63123 4 9.63123C4 9.63123 4 9.63123 4 9.63123C4 9.63123 4 9.63123 4 9.63123C4 9.63123 4 9.63123 4 9.63123C4 9.63123 4 9.63123 4 9.63123C4 9.63123 4 9.63123 4 9.63124C4 9.63124 4 9.63124 4 9.63124C4 9.63124 4 9.63124 4 9.63124C4 9.63124 4 9.63124 4 9.63124C4 9.63124 4 9.63124 4 9.63124C4 9.63124 4 9.63124 4 9.63124C4 9.63124 4 9.63124 4 9.63124C4 9.63124 4 9.63124 4 9.63124C4 9.63125 4 9.63125 4 9.63125C4 9.63125 4 9.63125 4 9.63125C4 9.63125 4 9.63125 4 9.63125C4 9.63125 4 9.63125 4 9.63125C4 9.63125 4 9.63125 4 9.63125C4 9.63125 4 9.63125 4 9.63125C4 9.63125 4 9.63125 4 9.63125C4 9.63125 4 9.63126 4 9.63126C4 9.63126 4 9.63126 4 9.63126C4 9.63126 4 9.63126 4 9.63126C4 9.63126 4 9.63126 4 9.63126C4 9.63126 4 9.63126 4 9.63126C4 9.63126 4 9.63126 4 9.63126C4 9.63126 4 9.63126 4 9.63126C4 9.63126 4 9.63126 4 9.63127C4 9.63127 4 9.63127 4 9.63127C4 9.63127 4 9.63127 4 9.63127C4 9.63127 4 9.63127 4 9.63127C4 9.63127 4 9.63127 4 9.63127C4 9.63127 4 9.63127 4 9.63127C4 9.63127 4 9.63127 4 9.63127C4 9.63127 4 9.63127 4 9.63127C4 9.63128 4 9.63128 4 9.63128C4 9.63128 4 9.63128 4 9.63128C4 9.63128 4 9.63128 4 9.63128C4 9.63128 4 9.63128 4 9.63128C4 9.63128 4 9.63128 4 9.63128C4 9.63128 4 9.63128 4 9.63128C4 9.63128 4 9.63128 4 9.63128C4 9.63128 4 9.63129 4 9.63129C4 9.63129 4 9.63129 4 9.63129C4 9.63129 4 9.63129 4 9.63129C4 9.63129 4 9.63129 4 9.63129C4 9.63129 4 9.63129 4 9.63129C4 9.63129 4 9.63129 4 9.63129C4 9.63129 4 9.63129 4 9.63129C4 9.63129 4 9.6313 4 9.6313C4 9.6313 4 9.6313 4 9.6313C4 9.6313 4 9.6313 4 9.6313C4 9.6313 4 9.6313 4 9.6313C4 9.6313 4 9.6313 4 9.6313C4 9.6313 4 9.6313 4 9.6313C4 9.6313 4 9.6313 4 9.6313C4 9.6313 4 9.6313 4 9.63131C4 9.63131 4 9.63131 4 9.63131C4 9.63131 4 9.63131 4 9.63131C4 9.63131 4 9.63131 4 9.63131C4 9.63131 4 9.63131 4 9.63131C4 9.63131 4 9.63131 4 9.63131C4 9.63131 4 9.63131 4 9.63131C4 9.63131 4 9.63131 4 9.63131C4 9.63132 4 9.63132 4 9.63132C4 9.63132 4 9.63132 4 9.63132C4 9.63132 4 9.63132 4 9.63132C4 9.63132 4 9.63132 4 9.63132C4 9.63132 4 9.63132 4 9.63132C4 9.63132 4 9.63132 4 9.63132C4 9.63132 4 9.63132 4 9.63132C4 9.63132 4 9.63133 4 9.63133C4 9.63133 4 9.63133 4 9.63133C4 9.63133 4 9.63133 4 9.63133C4 9.63133 4 9.63133 4 9.63133C4 9.63133 4 9.63133 4 9.63133C4 9.63133 4 9.63133 4 9.63133C4 9.63133 4 9.63133 4 9.63133C4 9.63133 4 9.63133 4 9.63134C4 9.63134 4 9.63134 4 9.63134C4 9.63134 4 9.63134 4 9.63134C4 9.63134 4 9.63134 4 9.63134C4 9.63134 4 9.63134 4 9.63134C4 9.63134 4 9.63134 4 9.63134C4 9.63134 4 9.63134 4 9.63134C4 9.63134 4 9.63134 4 9.63134C4 9.63135 4 9.63135 4 9.63135C4 9.63135 4 9.63135 4 9.63135C4 9.63135 4 9.63135 4 9.63135C4 9.63135 4 9.63135 4 9.63135C4 9.63135 4 9.63135 4 9.63135C4 9.63135 4 9.63135 4 9.63135C4 9.63135 4 9.63135 4 9.63135C4 9.63135 4 9.63136 4 9.63136C4 9.63136 4 9.63136 4 9.63136C4 9.63136 4 9.63136 4 9.63136C4 9.63136 4 9.63136 4 9.63136C4 9.63136 4 9.63136 4 9.63136C4 9.63136 4 9.63136 4 9.63136C4 9.63136 4 9.63136 4 9.63136C4 9.63136 4 9.63136 4 9.63137C4 9.63137 4 9.63137 4 9.63137C4 9.63137 4 9.63137 4 9.63137C4 9.63137 4 9.63137 4 9.63137C4 9.63137 4 9.63137 4 9.63137C4 9.63137 4 9.63137 4 9.63137C4 9.63137 4 9.63137 4 9.63137C4 9.63137 4 9.63137 4 9.63137C4 9.63138 4 9.63138 4 9.63138C4 9.63138 4 9.63138 4 9.63138C4 9.63138 4 9.63138 4 9.63138C4 9.63138 4 9.63138 4 9.63138C4 9.63138 4 9.63138 4 9.63138C4 9.63138 4 9.63138 4 9.63138C4 9.63138 4 9.63138 4 9.63138C4 9.63138 4 9.63139 4 9.63139C4 9.63139 4 9.63139 4 9.63139C4 9.63139 4 9.63139 4 9.63139C4 9.63139 4 9.63139 4 9.63139C4 9.63139 4 9.63139 4 9.63139C4 9.63139 4 9.63139 4 9.63139C4 9.63139 4 9.63139 4 9.63139C4 9.63139 4 9.63139 4 9.6314C4 9.6314 4 9.6314 4 9.6314C4 9.6314 4 9.6314 4 9.6314C4 9.6314 4 9.6314 4 9.6314C4 9.6314 4 9.6314 4 9.6314C4 9.6314 4 9.6314 4 9.6314C4 9.6314 4 9.6314 4 9.6314C4 9.6314 4 9.6314 4 9.6314C4 9.63141 4 9.63141 4 9.63141C4 9.63141 4 9.63141 4 9.63141C4 9.63141 4 9.63141 4 9.63141C4 9.63141 4 9.63141 4 9.63141C4 9.63141 4 9.63141 4 9.63141C4 9.63141 4 9.63141 4 9.63141C4 9.63141 4 9.63141 4 9.63141C4 9.63141 4 9.63142 4 9.63142C4 9.63142 4 9.63142 4 9.63142C4 9.63142 4 9.63142 4 9.63142C4 9.63142 4 9.63142 4 9.63142C4 9.63142 4 9.63142 4 9.63142C4 9.63142 4 9.63142 4 9.63142C4 9.63142 4 9.63142 4 9.63142C4 9.63142 4 9.63142 4 9.63143C4 9.63143 4 9.63143 4 9.63143C4 9.63143 4 9.63143 4 9.63143C4 9.63143 4 9.63143 4 9.63143C4 9.63143 4 9.63143 4 9.63143C4 9.63143 4 9.63143 4 9.63143C4 9.63143 4 9.63143 4 9.63143C4 9.63143 4 9.63143 4 9.63143C4 9.63144 4 9.63144 4 9.63144C4 9.63144 4 9.63144 4 9.63144C4 9.63144 4 9.63144 4 9.63144C4 9.63144 4 9.63144 4 9.63144C4 9.63144 4 9.63144 4 9.63144C4 9.63144 4 9.63144 4 9.63144C4 9.63144 4 9.63144 4 9.63144C4 9.63145 4 9.63145 4 9.63145C4 9.63145 4 9.63145 4 9.63145C4 9.63145 4 9.63145 4 9.63145C4 9.63145 4 9.63145 4 9.63145C4 9.63145 4 9.63145 4 9.63145C4 9.63145 4 9.63145 4 9.63145C4 9.63145 4 9.63145 4 9.63145C4 9.63145 4 9.63146 4 9.63146C4 9.63146 4 9.63146 4 9.63146C4 9.63146 4 9.63146 4 9.63146C4 9.63146 4 9.63146 4 9.63146C4 9.63146 4 9.63146 4 9.63146C4 9.63146 4 9.63146 4 9.63146C4 9.63146 4 9.63146 4 9.63146C4 9.63146 4 9.63146 4 9.63147C4 9.63147 4 9.63147 4 9.63147C4 9.63147 4 9.63147 4 9.63147C4 9.63147 4 9.63147 4 9.63147C4 9.63147 4 9.63147 4 9.63147C4 9.63147 4 9.63147 4 9.63147C4 9.63147 4 9.63147 4 9.63147C4 9.63147 4 9.63147 4 9.63147C4 9.63148 4 9.63148 4 9.63148C4 9.63148 4 9.63148 4 9.63148C4 9.63148 4 9.63148 4 9.63148C4 9.63148 4 9.63148 4 9.63148C4 9.63148 4 9.63148 4 9.63148C4 9.63148 4 9.63148 4 9.63148C4 9.63148 4 9.63148 4 9.63148C4 9.63148 4 9.63149 4 9.63149C4 9.63149 4 9.63149 4 9.63149C4 9.63149 4 9.63149 4 9.63149C4 9.63149 4 9.63149 4 9.63149C4 9.63149 4 9.63149 4 9.63149C4 9.63149 4 9.63149 4 9.63149C4 9.63149 4 9.63149 4 9.63149C4 9.63149 4 9.63149 4 9.6315C4 9.6315 4 9.6315 4 9.6315C4 9.6315 4 9.6315 4 9.6315C4 9.6315 4 9.6315 4 9.6315C4 9.6315 4 9.6315 4 9.6315C4 9.6315 4 9.6315 4 9.6315C4 9.6315 4 9.6315 4 9.6315C4 9.6315 4 9.6315 4 9.6315C4 9.63151 4 9.63151 4 9.63151C4 9.63151 4 9.63151 4 9.63151C4 9.63151 4 9.63151 4 9.63151C4 9.63151 4 9.63151 4 9.63151C4 9.63151 4 9.63151 4 9.63151C4 9.63151 4 9.63151 4 9.63151C4 9.63151 4 9.63151 4 9.63151C4 9.63151 4 9.63152 4 9.63152C4 9.63152 4 9.63152 4 9.63152C4 9.63152 4 9.63152 4 9.63152C4 9.63152 4 9.63152 4 9.63152C4 9.63152 4 9.63152 4 9.63152C4 9.63152 4 9.63152 4 9.63152C4 9.63152 4 9.63152 4 9.63152C4 9.63152 4 9.63152 4 9.63153C4 9.63153 4 9.63153 4 9.63153C4 9.63153 4 9.63153 4 9.63153C4 9.63153 4 9.63153 4 9.63153C4 9.63153 4 9.63153 4 9.63153C4 9.63153 4 9.63153 4 9.63153C4 9.63153 4 9.63153 4 9.63153C4 9.63153 4 9.63153 4 9.63153C4 9.63154 4 9.63154 4 9.63154C4 9.63154 4 9.63154 4 9.63154C4 9.63154 4 9.63154 4 9.63154C4 9.63154 4 9.63154 4 9.63154C4 9.63154 4 9.63154 4 9.63154C4 9.63154 4 9.63154 4 9.63154C4 9.63154 4 9.63154 4 9.63154C4 9.63154 4 9.63155 4 9.63155C4 9.63155 4 9.63155 4 9.63155C4 9.63155 4 9.63155 4 9.63155C4 9.63155 4 9.63155 4 9.63155C4 9.63155 4 9.63155 4 9.63155C4 9.63155 4 9.63155 4 9.63155C4 9.63155 4 9.63155 4 9.63155C4 9.63155 4 9.63155 4 9.63156C4 9.63156 4 9.63156 4 9.63156C4 9.63156 4 9.63156 4 9.63156C4 9.63156 4 9.63156 4 9.63156C4 9.63156 4 9.63156 4 9.63156C4 9.63156 4 9.63156 4 9.63156C4 9.63156 4 9.63156 4 9.63156C4 9.63156 4 9.63156 4 9.63156C4 9.63157 4 9.63157 4 9.63157C4 9.63157 4 9.63157 4 9.63157C4 9.63157 4 9.63157 4 9.63157C4 9.63157 4 9.63157 4 9.63157C4 9.63157 4 9.63157 4 9.63157C4 9.63157 4 9.63157 4 9.63157C4 9.63157 4 9.63157 4 9.63157C4 9.63157 4 9.63158 4 9.63158C4 9.63158 4 9.63158 4 9.63158C4 9.63158 4 9.63158 4 9.63158C4 9.63158 4 9.63158 4 9.63158C4 9.63158 4 9.63158 4 9.63158C4 9.63158 4 9.63158 4 9.63158C4 9.63158 4 9.63158 4 9.63158C4 9.63158 4 9.63158 4 9.63159C4 9.63159 4 9.63159 4 9.63159C4 9.63159 4 9.63159 4 9.63159C4 9.63159 4 9.63159 4 9.63159C4 9.63159 4 9.63159 4 9.63159C4 9.63159 4 9.63159 4 9.63159C4 9.63159 4 9.63159 4 9.63159C4 9.63159 4 9.63159 4 9.6316C4 9.6316 4 9.6316 4 9.6316C4 9.6316 4 9.6316 4 9.6316C4 9.6316 4 9.6316 4 9.6316C4 9.6316 4 9.6316 4 9.6316C4 9.6316 4 9.6316 4 9.6316C4 9.6316 4 9.6316 4 9.6316C4 9.6316 4 9.6316 4 9.6316C4 9.63161 4 9.63161 4 9.63161C4 9.63161 4 9.63161 4 9.63161C4 9.63161 4 9.63161 4 9.63161C4 9.63161 4 9.63161 4 9.63161C4 9.63161 4 9.63161 4 9.63161C4 9.63161 4 9.63161 4 9.63161C4 9.63161 4 9.63161 4 9.63161C4 9.63161 4 9.63162 4 9.63162C4 9.63162 4 9.63162 4 9.63162C4 9.63162 4 9.63162 4 9.63162C4 9.63162 4 9.63162 4 9.63162C4 9.63162 4 9.63162 4 9.63162C4 9.63162 4 9.63162 4 9.63162C4 9.63162 4 9.63162 4 9.63162C4 9.63162 4 9.63162 4 9.63163C4 9.63163 4 9.63163 4 9.63163C4 9.63163 4 9.63163 4 9.63163C4 9.63163 4 9.63163 4 9.63163C4 9.63163 4 9.63163 4 9.63163C4 9.63163 4 9.63163 4 9.63163C4 9.63163 4 9.63163 4 9.63163C4 9.63163 4 9.63163 4 9.63163C4 9.63164 4 9.63164 4 9.63164C4 9.63164 4 9.63164 4 9.63164C4 9.63164 4 9.63164 4 9.63164C4 9.63164 4 9.63164 4 9.63164C4 9.63164 4 9.63164 4 9.63164C4 9.63164 4 9.63164 4 9.63164C4 9.63164 4 9.63164 4 9.63164C4 9.63164 4 9.63165 4 9.63165C4 9.63165 4 9.63165 4 9.63165C4 9.63165 4 9.63165 4 9.63165C4 9.63165 4 9.63165 4 9.63165C4 9.63165 4 9.63165 4 9.63165C4 9.63165 4 9.63165 4 9.63165C4 9.63165 4 9.63165 4 9.63165C4 9.63165 4 9.63165 4 9.63166C4 9.63166 4 9.63166 4 9.63166C4 9.63166 4 9.63166 4 9.63166C4 9.63166 4 9.63166 4 9.63166C4 9.63166 4 9.63166 4 9.63166C4 9.63166 4 9.63166 4 9.63166C4 9.63166 4 9.63166 4 9.63166C4 9.63166 4 9.63166 4 9.63166C4 9.63167 4 9.63167 4 9.63167C4 9.63167 4 9.63167 4 9.63167C4 9.63167 4 9.63167 4 9.63167C4 9.63167 4 9.63167 4 9.63167C4 9.63167 4 9.63167 4 9.63167C4 9.63167 4 9.63167 4 9.63167C4 9.63167 4 9.63167 4 9.63167C4 9.63167 4 9.63168 4 9.63168C4 9.63168 4 9.63168 4 9.63168C4 9.63168 4 9.63168 4 9.63168C4 9.63168 4 9.63168 4 9.63168C4 9.63168 4 9.63168 4 9.63168C4 9.63168 4 9.63168 4 9.63168C4 9.63168 4 9.63168 4 9.63168C4 9.63168 4 9.63168 4 9.63169C4 9.63169 4 9.63169 4 9.63169C4 9.63169 4 9.63169 4 9.63169C4 9.63169 4 9.63169 4 9.63169C4 9.63169 4 9.63169 4 9.63169C4 9.63169 4 9.63169 4 9.63169C4 9.63169 4 9.63169 4 9.63169C4 9.63169 4 9.63169 4 9.63169C4 9.6317 4 9.6317 4 9.6317C4 9.6317 4 9.6317 4 9.6317C4 9.6317 4 9.6317 4 9.6317C4 9.6317 4 9.6317 4 9.6317C4 9.6317 4 9.6317 4 9.6317C4 9.6317 4 9.6317 4 9.6317C4 9.6317 4 9.6317 4 9.6317C4 9.6317 4 9.63171 4 9.63171C4 9.63171 4 9.63171 4 9.63171C4 9.63171 4 9.63171 4 9.63171C4 9.63171 4 9.63171 4 9.63171C4 9.63171 4 9.63171 4 9.63171C4 9.63171 4 9.63171 4 9.63171C4 9.63171 4 9.63171 4 9.63171C4 9.63171 4 9.63171 4 9.63172C4 9.63172 4 9.63172 4 9.63172C4 9.63172 4 9.63172 4 9.63172C4 9.63172 4 9.63172 4 9.63172C4 9.63172 4 9.63172 4 9.63172C4 9.63172 4 9.63172 4 9.63172C4 9.63172 4 9.63172 4 9.63172C4 9.63172 4 9.63172 4 9.63172C4 9.63173 4 9.63173 4 9.63173C4 9.63173 4 9.63173 4 9.63173C4 9.63173 4 9.63173 4 9.63173C4 9.63173 4 9.63173 4 9.63173C4 9.63173 4 9.63173 4 9.63173C4 9.63173 4 9.63173 4 9.63173C4 9.63173 4 9.63173 4 9.63173C4 9.63173 4 9.63174 4 9.63174C4 9.63174 4 9.63174 4 9.63174C4 9.63174 4 9.63174 4 9.63174C4 9.63174 4 9.63174 4 9.63174C4 9.63174 4 9.63174 4 9.63174C4 9.63174 4 9.63174 4 9.63174C4 9.63174 4 9.63174 4 9.63174C4 9.63174 4 9.63175 4 9.63175C4 9.63175 4 9.63175 4 9.63175C4 9.63175 4 9.63175 4 9.63175C4 9.63175 4 9.63175 4 9.63175C4 9.63175 4 9.63175 4 9.63175C4 9.63175 4 9.63175 4 9.63175C4 9.63175 4 9.63175 4 9.63175C4 9.63175 4 9.63175 4 9.63176C4 9.63176 4 9.63176 4 9.63176C4 9.63176 4 9.63176 4 9.63176C4 9.63176 4 9.63176 4 9.63176C4 9.63176 4 9.63176 4 9.63176C4 9.63176 4 9.63176 4 9.63176C4 9.63176 4 9.63176 4 9.63176C4 9.63176 4 9.63176 4 9.63176C4 9.63177 4 9.63177 4 9.63177C4 9.63177 4 9.63177 4 9.63177C4 9.63177 4 9.63177 4 9.63177C4 9.63177 4 9.63177 4 9.63177C4 9.63177 4 9.63177 4 9.63177C4 9.63177 4 9.63177 4 9.63177C4 9.63177 4 9.63177 4 9.63177C4 9.63177 4 9.63178 4 9.63178C4 9.63178 4 9.63178 4 9.63178C4 9.63178 4 9.63178 4 9.63178C4 9.63178 4 9.63178 4 9.63178C4 9.63178 4 9.63178 4 9.63178C4 9.63178 4 9.63178 4 9.63178C4 9.63178 4 9.63178 4 9.63178C4 9.63178 4 9.63178 4 9.63179C4 9.63179 4 9.63179 4 9.63179C4 9.63179 4 9.63179 4 9.63179C4 9.63179 4 9.63179 4 9.63179C4 9.63179 4 9.63179 4 9.63179C4 9.63179 4 9.63179 4 9.63179C4 9.63179 4 9.63179 4 9.63179C4 9.63179 4 9.63179 4 9.63179C4 9.6318 4 9.6318 4 9.6318C4 9.6318 4 9.6318 4 9.6318C4 9.6318 4 9.6318 4 9.6318C4 9.6318 4 9.6318 4 9.6318C4 9.6318 4 9.6318 4 9.6318C4 9.6318 4 9.6318 4 9.6318C4 9.6318 4 9.6318 4 9.6318C4 9.6318 4 9.63181 4 9.63181C4 9.63181 4 9.63181 4 9.63181C4 9.63181 4 9.63181 4 9.63181C4 9.63181 4 9.63181 4 9.63181C4 9.63181 4 9.63181 4 9.63181C4 9.63181 4 9.63181 4 9.63181C4 9.63181 4 9.63181 4 9.63181C4 9.63181 4 9.63181 4 9.63182C4 9.63182 4 9.63182 4 9.63182C4 9.63182 4 9.63182 4 9.63182C4 9.63182 4 9.63182 4 9.63182C4 9.63182 4 9.63182 4 9.63182C4 9.63182 4 9.63182 4 9.63182C4 9.63182 4 9.63182 4 9.63182C4 9.63182 4 9.63182 4 9.63182C4 9.63183 4 9.63183 4 9.63183C4 9.63183 4 9.63183 4 9.63183C4 9.63183 4 9.63183 4 9.63183C4 9.63183 4 9.63183 4 9.63183C4 9.63183 4 9.63183 4 9.63183C4 9.63183 4 9.63183 4 9.63183C4 9.63183 4 9.63183 4 9.63183C4 9.63183 4 9.63184 4 9.63184C4 9.63184 4 9.63184 4 9.63184C4 9.63184 4 9.63184 4 9.63184C4 9.63184 4 9.63184 4 9.63184C4 9.63184 4 9.63184 4 9.63184C4 9.63184 4 9.63184 4 9.63184C4 9.63184 4 9.63184 4 9.63184C4 9.63184 4 9.63184 4 9.63185C4 9.63185 4 9.63185 4 9.63185C4 9.63185 4 9.63185 4 9.63185C4 9.63185 4 9.63185 4 9.63185C4 9.63185 4 9.63185 4 9.63185C4 9.63185 4 9.63185 4 9.63185C4 9.63185 4 9.63185 4 9.63185C4 9.63185 4 9.63185 4 9.63185C4 9.63186 4 9.63186 4 9.63186C4 9.63186 4 9.63186 4 9.63186C4 9.63186 4 9.63186 4 9.63186C4 9.63186 4 9.63186 4 9.63186C4 9.63186 4 9.63186 4 9.63186C4 9.63186 4 9.63186 4 9.63186C4 9.63186 4 9.63186 4 9.63186C4 9.63186 4 9.63187 4 9.63187C4 9.63187 4 9.63187 4 9.63187C4 9.63187 4 9.63187 4 9.63187C4 9.63187 4 9.63187 4 9.63187C4 9.63187 4 9.63187 4 9.63187C4 9.63187 4 9.63187 4 9.63187C4 9.63187 4 9.63187 4 9.63187C4 9.63187 4 9.63188 4 9.63188C4 9.63188 4 9.63188 4 9.63188C4 9.63188 4 9.63188 4 9.63188C4 9.63188 4 9.63188 4 9.63188C4 9.63188 4 9.63188 4 9.63188C4 9.63188 4 9.63188 4 9.63188C4 9.63188 4 9.63188 4 9.63188C4 9.63188 4 9.63188 4 9.63189C4 9.63189 4 9.63189 4 9.63189C4 9.63189 4 9.63189 4 9.63189C4 9.63189 4 9.63189 4 9.63189C4 9.63189 4 9.63189 4 9.63189C4 9.63189 4 9.63189 4 9.63189C4 9.63189 4 9.63189 4 9.63189C4 9.63189 4 9.63189 4 9.63189C4 9.6319 4 9.6319 4 9.6319H6ZM6 9.6313C6.00033 6.57137 8.63492 4 12 4V2C7.63358 2 4.00047 5.36627 4 9.63109L6 9.6313ZM12 4C15.3651 4 17.9997 6.57137 18 9.6313L20 9.63109C19.9995 5.36627 16.3664 2 12 2V4ZM18 9.6312C18 9.6312 18 9.6312 18 9.6312C18 9.6312 18 9.6312 18 9.6312C18 9.6312 18 9.6312 18 9.6312C18 9.6312 18 9.6312 18 9.6312C18 9.6312 18 9.6312 18 9.6312C18 9.6312 18 9.6312 18 9.6312C18 9.6312 18 9.6312 18 9.63121C18 9.63121 18 9.63121 18 9.63121C18 9.63121 18 9.63121 18 9.63121C18 9.63121 18 9.63121 18 9.63121C18 9.63121 18 9.63121 18 9.63121C18 9.63121 18 9.63121 18 9.63121C18 9.63121 18 9.63121 18 9.63121C18 9.63121 18 9.63121 18 9.63121C18 9.63122 18 9.63122 18 9.63122C18 9.63122 18 9.63122 18 9.63122C18 9.63122 18 9.63122 18 9.63122C18 9.63122 18 9.63122 18 9.63122C18 9.63122 18 9.63122 18 9.63122C18 9.63122 18 9.63122 18 9.63122C18 9.63122 18 9.63122 18 9.63122C18 9.63122 18 9.63123 18 9.63123C18 9.63123 18 9.63123 18 9.63123C18 9.63123 18 9.63123 18 9.63123C18 9.63123 18 9.63123 18 9.63123C18 9.63123 18 9.63123 18 9.63123C18 9.63123 18 9.63123 18 9.63123C18 9.63123 18 9.63123 18 9.63123C18 9.63123 18 9.63123 18 9.63124C18 9.63124 18 9.63124 18 9.63124C18 9.63124 18 9.63124 18 9.63124C18 9.63124 18 9.63124 18 9.63124C18 9.63124 18 9.63124 18 9.63124C18 9.63124 18 9.63124 18 9.63124C18 9.63124 18 9.63124 18 9.63124C18 9.63124 18 9.63124 18 9.63124C18 9.63125 18 9.63125 18 9.63125C18 9.63125 18 9.63125 18 9.63125C18 9.63125 18 9.63125 18 9.63125C18 9.63125 18 9.63125 18 9.63125C18 9.63125 18 9.63125 18 9.63125C18 9.63125 18 9.63125 18 9.63125C18 9.63125 18 9.63125 18 9.63125C18 9.63125 18 9.63126 18 9.63126C18 9.63126 18 9.63126 18 9.63126C18 9.63126 18 9.63126 18 9.63126C18 9.63126 18 9.63126 18 9.63126C18 9.63126 18 9.63126 18 9.63126C18 9.63126 18 9.63126 18 9.63126C18 9.63126 18 9.63126 18 9.63126C18 9.63126 18 9.63126 18 9.63127C18 9.63127 18 9.63127 18 9.63127C18 9.63127 18 9.63127 18 9.63127C18 9.63127 18 9.63127 18 9.63127C18 9.63127 18 9.63127 18 9.63127C18 9.63127 18 9.63127 18 9.63127C18 9.63127 18 9.63127 18 9.63127C18 9.63127 18 9.63127 18 9.63127C18 9.63128 18 9.63128 18 9.63128C18 9.63128 18 9.63128 18 9.63128C18 9.63128 18 9.63128 18 9.63128C18 9.63128 18 9.63128 18 9.63128C18 9.63128 18 9.63128 18 9.63128C18 9.63128 18 9.63128 18 9.63128C18 9.63128 18 9.63128 18 9.63128C18 9.63128 18 9.63129 18 9.63129C18 9.63129 18 9.63129 18 9.63129C18 9.63129 18 9.63129 18 9.63129C18 9.63129 18 9.63129 18 9.63129C18 9.63129 18 9.63129 18 9.63129C18 9.63129 18 9.63129 18 9.63129C18 9.63129 18 9.63129 18 9.63129C18 9.63129 18 9.6313 18 9.6313C18 9.6313 18 9.6313 18 9.6313C18 9.6313 18 9.6313 18 9.6313C18 9.6313 18 9.6313 18 9.6313C18 9.6313 18 9.6313 18 9.6313C18 9.6313 18 9.6313 18 9.6313C18 9.6313 18 9.6313 18 9.6313C18 9.6313 18 9.6313 18 9.63131C18 9.63131 18 9.63131 18 9.63131C18 9.63131 18 9.63131 18 9.63131C18 9.63131 18 9.63131 18 9.63131C18 9.63131 18 9.63131 18 9.63131C18 9.63131 18 9.63131 18 9.63131C18 9.63131 18 9.63131 18 9.63131C18 9.63131 18 9.63131 18 9.63131C18 9.63132 18 9.63132 18 9.63132C18 9.63132 18 9.63132 18 9.63132C18 9.63132 18 9.63132 18 9.63132C18 9.63132 18 9.63132 18 9.63132C18 9.63132 18 9.63132 18 9.63132C18 9.63132 18 9.63132 18 9.63132C18 9.63132 18 9.63132 18 9.63132C18 9.63132 18 9.63133 18 9.63133C18 9.63133 18 9.63133 18 9.63133C18 9.63133 18 9.63133 18 9.63133C18 9.63133 18 9.63133 18 9.63133C18 9.63133 18 9.63133 18 9.63133C18 9.63133 18 9.63133 18 9.63133C18 9.63133 18 9.63133 18 9.63133C18 9.63133 18 9.63133 18 9.63134C18 9.63134 18 9.63134 18 9.63134C18 9.63134 18 9.63134 18 9.63134C18 9.63134 18 9.63134 18 9.63134C18 9.63134 18 9.63134 18 9.63134C18 9.63134 18 9.63134 18 9.63134C18 9.63134 18 9.63134 18 9.63134C18 9.63134 18 9.63134 18 9.63134C18 9.63135 18 9.63135 18 9.63135C18 9.63135 18 9.63135 18 9.63135C18 9.63135 18 9.63135 18 9.63135C18 9.63135 18 9.63135 18 9.63135C18 9.63135 18 9.63135 18 9.63135C18 9.63135 18 9.63135 18 9.63135C18 9.63135 18 9.63135 18 9.63135C18 9.63135 18 9.63136 18 9.63136C18 9.63136 18 9.63136 18 9.63136C18 9.63136 18 9.63136 18 9.63136C18 9.63136 18 9.63136 18 9.63136C18 9.63136 18 9.63136 18 9.63136C18 9.63136 18 9.63136 18 9.63136C18 9.63136 18 9.63136 18 9.63136C18 9.63136 18 9.63136 18 9.63137C18 9.63137 18 9.63137 18 9.63137C18 9.63137 18 9.63137 18 9.63137C18 9.63137 18 9.63137 18 9.63137C18 9.63137 18 9.63137 18 9.63137C18 9.63137 18 9.63137 18 9.63137C18 9.63137 18 9.63137 18 9.63137C18 9.63137 18 9.63137 18 9.63137C18 9.63138 18 9.63138 18 9.63138C18 9.63138 18 9.63138 18 9.63138C18 9.63138 18 9.63138 18 9.63138C18 9.63138 18 9.63138 18 9.63138C18 9.63138 18 9.63138 18 9.63138C18 9.63138 18 9.63138 18 9.63138C18 9.63138 18 9.63138 18 9.63138C18 9.63138 18 9.63139 18 9.63139C18 9.63139 18 9.63139 18 9.63139C18 9.63139 18 9.63139 18 9.63139C18 9.63139 18 9.63139 18 9.63139C18 9.63139 18 9.63139 18 9.63139C18 9.63139 18 9.63139 18 9.63139C18 9.63139 18 9.63139 18 9.63139C18 9.63139 18 9.63139 18 9.6314C18 9.6314 18 9.6314 18 9.6314C18 9.6314 18 9.6314 18 9.6314C18 9.6314 18 9.6314 18 9.6314C18 9.6314 18 9.6314 18 9.6314C18 9.6314 18 9.6314 18 9.6314C18 9.6314 18 9.6314 18 9.6314C18 9.6314 18 9.6314 18 9.6314C18 9.63141 18 9.63141 18 9.63141C18 9.63141 18 9.63141 18 9.63141C18 9.63141 18 9.63141 18 9.63141C18 9.63141 18 9.63141 18 9.63141C18 9.63141 18 9.63141 18 9.63141C18 9.63141 18 9.63141 18 9.63141C18 9.63141 18 9.63141 18 9.63141C18 9.63141 18 9.63142 18 9.63142C18 9.63142 18 9.63142 18 9.63142C18 9.63142 18 9.63142 18 9.63142C18 9.63142 18 9.63142 18 9.63142C18 9.63142 18 9.63142 18 9.63142C18 9.63142 18 9.63142 18 9.63142C18 9.63142 18 9.63142 18 9.63142C18 9.63142 18 9.63142 18 9.63143C18 9.63143 18 9.63143 18 9.63143C18 9.63143 18 9.63143 18 9.63143C18 9.63143 18 9.63143 18 9.63143C18 9.63143 18 9.63143 18 9.63143C18 9.63143 18 9.63143 18 9.63143C18 9.63143 18 9.63143 18 9.63143C18 9.63143 18 9.63143 18 9.63143C18 9.63144 18 9.63144 18 9.63144C18 9.63144 18 9.63144 18 9.63144C18 9.63144 18 9.63144 18 9.63144C18 9.63144 18 9.63144 18 9.63144C18 9.63144 18 9.63144 18 9.63144C18 9.63144 18 9.63144 18 9.63144C18 9.63144 18 9.63144 18 9.63144C18 9.63145 18 9.63145 18 9.63145C18 9.63145 18 9.63145 18 9.63145C18 9.63145 18 9.63145 18 9.63145C18 9.63145 18 9.63145 18 9.63145C18 9.63145 18 9.63145 18 9.63145C18 9.63145 18 9.63145 18 9.63145C18 9.63145 18 9.63145 18 9.63145C18 9.63145 18 9.63146 18 9.63146C18 9.63146 18 9.63146 18 9.63146C18 9.63146 18 9.63146 18 9.63146C18 9.63146 18 9.63146 18 9.63146C18 9.63146 18 9.63146 18 9.63146C18 9.63146 18 9.63146 18 9.63146C18 9.63146 18 9.63146 18 9.63146C18 9.63146 18 9.63146 18 9.63147C18 9.63147 18 9.63147 18 9.63147C18 9.63147 18 9.63147 18 9.63147C18 9.63147 18 9.63147 18 9.63147C18 9.63147 18 9.63147 18 9.63147C18 9.63147 18 9.63147 18 9.63147C18 9.63147 18 9.63147 18 9.63147C18 9.63147 18 9.63147 18 9.63147C18 9.63148 18 9.63148 18 9.63148C18 9.63148 18 9.63148 18 9.63148C18 9.63148 18 9.63148 18 9.63148C18 9.63148 18 9.63148 18 9.63148C18 9.63148 18 9.63148 18 9.63148C18 9.63148 18 9.63148 18 9.63148C18 9.63148 18 9.63148 18 9.63148C18 9.63148 18 9.63149 18 9.63149C18 9.63149 18 9.63149 18 9.63149C18 9.63149 18 9.63149 18 9.63149C18 9.63149 18 9.63149 18 9.63149C18 9.63149 18 9.63149 18 9.63149C18 9.63149 18 9.63149 18 9.63149C18 9.63149 18 9.63149 18 9.63149C18 9.63149 18 9.63149 18 9.6315C18 9.6315 18 9.6315 18 9.6315C18 9.6315 18 9.6315 18 9.6315C18 9.6315 18 9.6315 18 9.6315C18 9.6315 18 9.6315 18 9.6315C18 9.6315 18 9.6315 18 9.6315C18 9.6315 18 9.6315 18 9.6315C18 9.6315 18 9.6315 18 9.6315C18 9.63151 18 9.63151 18 9.63151C18 9.63151 18 9.63151 18 9.63151C18 9.63151 18 9.63151 18 9.63151C18 9.63151 18 9.63151 18 9.63151C18 9.63151 18 9.63151 18 9.63151C18 9.63151 18 9.63151 18 9.63151C18 9.63151 18 9.63151 18 9.63151C18 9.63151 18 9.63152 18 9.63152C18 9.63152 18 9.63152 18 9.63152C18 9.63152 18 9.63152 18 9.63152C18 9.63152 18 9.63152 18 9.63152C18 9.63152 18 9.63152 18 9.63152C18 9.63152 18 9.63152 18 9.63152C18 9.63152 18 9.63152 18 9.63152C18 9.63152 18 9.63152 18 9.63153C18 9.63153 18 9.63153 18 9.63153C18 9.63153 18 9.63153 18 9.63153C18 9.63153 18 9.63153 18 9.63153C18 9.63153 18 9.63153 18 9.63153C18 9.63153 18 9.63153 18 9.63153C18 9.63153 18 9.63153 18 9.63153C18 9.63153 18 9.63153 18 9.63153C18 9.63154 18 9.63154 18 9.63154C18 9.63154 18 9.63154 18 9.63154C18 9.63154 18 9.63154 18 9.63154C18 9.63154 18 9.63154 18 9.63154C18 9.63154 18 9.63154 18 9.63154C18 9.63154 18 9.63154 18 9.63154C18 9.63154 18 9.63154 18 9.63154C18 9.63154 18 9.63155 18 9.63155C18 9.63155 18 9.63155 18 9.63155C18 9.63155 18 9.63155 18 9.63155C18 9.63155 18 9.63155 18 9.63155C18 9.63155 18 9.63155 18 9.63155C18 9.63155 18 9.63155 18 9.63155C18 9.63155 18 9.63155 18 9.63155C18 9.63155 18 9.63155 18 9.63156C18 9.63156 18 9.63156 18 9.63156C18 9.63156 18 9.63156 18 9.63156C18 9.63156 18 9.63156 18 9.63156C18 9.63156 18 9.63156 18 9.63156C18 9.63156 18 9.63156 18 9.63156C18 9.63156 18 9.63156 18 9.63156C18 9.63156 18 9.63156 18 9.63156C18 9.63157 18 9.63157 18 9.63157C18 9.63157 18 9.63157 18 9.63157C18 9.63157 18 9.63157 18 9.63157C18 9.63157 18 9.63157 18 9.63157C18 9.63157 18 9.63157 18 9.63157C18 9.63157 18 9.63157 18 9.63157C18 9.63157 18 9.63157 18 9.63157C18 9.63157 18 9.63158 18 9.63158C18 9.63158 18 9.63158 18 9.63158C18 9.63158 18 9.63158 18 9.63158C18 9.63158 18 9.63158 18 9.63158C18 9.63158 18 9.63158 18 9.63158C18 9.63158 18 9.63158 18 9.63158C18 9.63158 18 9.63158 18 9.63158C18 9.63158 18 9.63158 18 9.63159C18 9.63159 18 9.63159 18 9.63159C18 9.63159 18 9.63159 18 9.63159C18 9.63159 18 9.63159 18 9.63159C18 9.63159 18 9.63159 18 9.63159C18 9.63159 18 9.63159 18 9.63159C18 9.63159 18 9.63159 18 9.63159C18 9.63159 18 9.63159 18 9.6316C18 9.6316 18 9.6316 18 9.6316C18 9.6316 18 9.6316 18 9.6316C18 9.6316 18 9.6316 18 9.6316C18 9.6316 18 9.6316 18 9.6316C18 9.6316 18 9.6316 18 9.6316C18 9.6316 18 9.6316 18 9.6316C18 9.6316 18 9.6316 18 9.6316C18 9.63161 18 9.63161 18 9.63161C18 9.63161 18 9.63161 18 9.63161C18 9.63161 18 9.63161 18 9.63161C18 9.63161 18 9.63161 18 9.63161C18 9.63161 18 9.63161 18 9.63161C18 9.63161 18 9.63161 18 9.63161C18 9.63161 18 9.63161 18 9.63161C18 9.63161 18 9.63162 18 9.63162C18 9.63162 18 9.63162 18 9.63162C18 9.63162 18 9.63162 18 9.63162C18 9.63162 18 9.63162 18 9.63162C18 9.63162 18 9.63162 18 9.63162C18 9.63162 18 9.63162 18 9.63162C18 9.63162 18 9.63162 18 9.63162C18 9.63162 18 9.63162 18 9.63163C18 9.63163 18 9.63163 18 9.63163C18 9.63163 18 9.63163 18 9.63163C18 9.63163 18 9.63163 18 9.63163C18 9.63163 18 9.63163 18 9.63163C18 9.63163 18 9.63163 18 9.63163C18 9.63163 18 9.63163 18 9.63163C18 9.63163 18 9.63163 18 9.63163C18 9.63164 18 9.63164 18 9.63164C18 9.63164 18 9.63164 18 9.63164C18 9.63164 18 9.63164 18 9.63164C18 9.63164 18 9.63164 18 9.63164C18 9.63164 18 9.63164 18 9.63164C18 9.63164 18 9.63164 18 9.63164C18 9.63164 18 9.63164 18 9.63164C18 9.63164 18 9.63165 18 9.63165C18 9.63165 18 9.63165 18 9.63165C18 9.63165 18 9.63165 18 9.63165C18 9.63165 18 9.63165 18 9.63165C18 9.63165 18 9.63165 18 9.63165C18 9.63165 18 9.63165 18 9.63165C18 9.63165 18 9.63165 18 9.63165C18 9.63165 18 9.63165 18 9.63166C18 9.63166 18 9.63166 18 9.63166C18 9.63166 18 9.63166 18 9.63166C18 9.63166 18 9.63166 18 9.63166C18 9.63166 18 9.63166 18 9.63166C18 9.63166 18 9.63166 18 9.63166C18 9.63166 18 9.63166 18 9.63166C18 9.63166 18 9.63166 18 9.63166C18 9.63167 18 9.63167 18 9.63167C18 9.63167 18 9.63167 18 9.63167C18 9.63167 18 9.63167 18 9.63167C18 9.63167 18 9.63167 18 9.63167C18 9.63167 18 9.63167 18 9.63167C18 9.63167 18 9.63167 18 9.63167C18 9.63167 18 9.63167 18 9.63167C18 9.63167 18 9.63168 18 9.63168C18 9.63168 18 9.63168 18 9.63168C18 9.63168 18 9.63168 18 9.63168C18 9.63168 18 9.63168 18 9.63168C18 9.63168 18 9.63168 18 9.63168C18 9.63168 18 9.63168 18 9.63168C18 9.63168 18 9.63168 18 9.63168C18 9.63168 18 9.63168 18 9.63169C18 9.63169 18 9.63169 18 9.63169C18 9.63169 18 9.63169 18 9.63169C18 9.63169 18 9.63169 18 9.63169C18 9.63169 18 9.63169 18 9.63169C18 9.63169 18 9.63169 18 9.63169C18 9.63169 18 9.63169 18 9.63169C18 9.63169 18 9.63169 18 9.63169C18 9.6317 18 9.6317 18 9.6317C18 9.6317 18 9.6317 18 9.6317C18 9.6317 18 9.6317 18 9.6317C18 9.6317 18 9.6317 18 9.6317C18 9.6317 18 9.6317 18 9.6317C18 9.6317 18 9.6317 18 9.6317C18 9.6317 18 9.6317 18 9.6317C18 9.6317 18 9.63171 18 9.63171C18 9.63171 18 9.63171 18 9.63171C18 9.63171 18 9.63171 18 9.63171C18 9.63171 18 9.63171 18 9.63171C18 9.63171 18 9.63171 18 9.63171C18 9.63171 18 9.63171 18 9.63171C18 9.63171 18 9.63171 18 9.63171C18 9.63171 18 9.63171 18 9.63172C18 9.63172 18 9.63172 18 9.63172C18 9.63172 18 9.63172 18 9.63172C18 9.63172 18 9.63172 18 9.63172C18 9.63172 18 9.63172 18 9.63172C18 9.63172 18 9.63172 18 9.63172C18 9.63172 18 9.63172 18 9.63172C18 9.63172 18 9.63172 18 9.63172C18 9.63173 18 9.63173 18 9.63173C18 9.63173 18 9.63173 18 9.63173C18 9.63173 18 9.63173 18 9.63173C18 9.63173 18 9.63173 18 9.63173C18 9.63173 18 9.63173 18 9.63173C18 9.63173 18 9.63173 18 9.63173C18 9.63173 18 9.63173 18 9.63173C18 9.63173 18 9.63174 18 9.63174C18 9.63174 18 9.63174 18 9.63174C18 9.63174 18 9.63174 18 9.63174C18 9.63174 18 9.63174 18 9.63174C18 9.63174 18 9.63174 18 9.63174C18 9.63174 18 9.63174 18 9.63174C18 9.63174 18 9.63174 18 9.63174C18 9.63174 18 9.63175 18 9.63175C18 9.63175 18 9.63175 18 9.63175C18 9.63175 18 9.63175 18 9.63175C18 9.63175 18 9.63175 18 9.63175C18 9.63175 18 9.63175 18 9.63175C18 9.63175 18 9.63175 18 9.63175C18 9.63175 18 9.63175 18 9.63175C18 9.63175 18 9.63175 18 9.63176C18 9.63176 18 9.63176 18 9.63176C18 9.63176 18 9.63176 18 9.63176C18 9.63176 18 9.63176 18 9.63176C18 9.63176 18 9.63176 18 9.63176C18 9.63176 18 9.63176 18 9.63176C18 9.63176 18 9.63176 18 9.63176C18 9.63176 18 9.63176 18 9.63176C18 9.63177 18 9.63177 18 9.63177C18 9.63177 18 9.63177 18 9.63177C18 9.63177 18 9.63177 18 9.63177C18 9.63177 18 9.63177 18 9.63177C18 9.63177 18 9.63177 18 9.63177C18 9.63177 18 9.63177 18 9.63177C18 9.63177 18 9.63177 18 9.63177C18 9.63177 18 9.63178 18 9.63178C18 9.63178 18 9.63178 18 9.63178C18 9.63178 18 9.63178 18 9.63178C18 9.63178 18 9.63178 18 9.63178C18 9.63178 18 9.63178 18 9.63178C18 9.63178 18 9.63178 18 9.63178C18 9.63178 18 9.63178 18 9.63178C18 9.63178 18 9.63178 18 9.63179C18 9.63179 18 9.63179 18 9.63179C18 9.63179 18 9.63179 18 9.63179C18 9.63179 18 9.63179 18 9.63179C18 9.63179 18 9.63179 18 9.63179C18 9.63179 18 9.63179 18 9.63179C18 9.63179 18 9.63179 18 9.63179C18 9.63179 18 9.63179 18 9.63179C18 9.6318 18 9.6318 18 9.6318C18 9.6318 18 9.6318 18 9.6318C18 9.6318 18 9.6318 18 9.6318C18 9.6318 18 9.6318 18 9.6318C18 9.6318 18 9.6318 18 9.6318C18 9.6318 18 9.6318 18 9.6318C18 9.6318 18 9.6318 18 9.6318C18 9.6318 18 9.63181 18 9.63181C18 9.63181 18 9.63181 18 9.63181C18 9.63181 18 9.63181 18 9.63181C18 9.63181 18 9.63181 18 9.63181C18 9.63181 18 9.63181 18 9.63181C18 9.63181 18 9.63181 18 9.63181C18 9.63181 18 9.63181 18 9.63181C18 9.63181 18 9.63181 18 9.63182C18 9.63182 18 9.63182 18 9.63182C18 9.63182 18 9.63182 18 9.63182C18 9.63182 18 9.63182 18 9.63182C18 9.63182 18 9.63182 18 9.63182C18 9.63182 18 9.63182 18 9.63182C18 9.63182 18 9.63182 18 9.63182C18 9.63182 18 9.63182 18 9.63182C18 9.63183 18 9.63183 18 9.63183C18 9.63183 18 9.63183 18 9.63183C18 9.63183 18 9.63183 18 9.63183C18 9.63183 18 9.63183 18 9.63183C18 9.63183 18 9.63183 18 9.63183C18 9.63183 18 9.63183 18 9.63183C18 9.63183 18 9.63183 18 9.63183C18 9.63183 18 9.63184 18 9.63184C18 9.63184 18 9.63184 18 9.63184C18 9.63184 18 9.63184 18 9.63184C18 9.63184 18 9.63184 18 9.63184C18 9.63184 18 9.63184 18 9.63184C18 9.63184 18 9.63184 18 9.63184C18 9.63184 18 9.63184 18 9.63184C18 9.63184 18 9.63184 18 9.63185C18 9.63185 18 9.63185 18 9.63185C18 9.63185 18 9.63185 18 9.63185C18 9.63185 18 9.63185 18 9.63185C18 9.63185 18 9.63185 18 9.63185C18 9.63185 18 9.63185 18 9.63185C18 9.63185 18 9.63185 18 9.63185C18 9.63185 18 9.63185 18 9.63185C18 9.63186 18 9.63186 18 9.63186C18 9.63186 18 9.63186 18 9.63186C18 9.63186 18 9.63186 18 9.63186C18 9.63186 18 9.63186 18 9.63186C18 9.63186 18 9.63186 18 9.63186C18 9.63186 18 9.63186 18 9.63186C18 9.63186 18 9.63186 18 9.63186C18 9.63186 18 9.63187 18 9.63187C18 9.63187 18 9.63187 18 9.63187C18 9.63187 18 9.63187 18 9.63187C18 9.63187 18 9.63187 18 9.63187C18 9.63187 18 9.63187 18 9.63187C18 9.63187 18 9.63187 18 9.63187C18 9.63187 18 9.63187 18 9.63187C18 9.63187 18 9.63188 18 9.63188C18 9.63188 18 9.63188 18 9.63188C18 9.63188 18 9.63188 18 9.63188C18 9.63188 18 9.63188 18 9.63188C18 9.63188 18 9.63188 18 9.63188C18 9.63188 18 9.63188 18 9.63188C18 9.63188 18 9.63188 18 9.63188C18 9.63188 18 9.63188 18 9.63189C18 9.63189 18 9.63189 18 9.63189C18 9.63189 18 9.63189 18 9.63189C18 9.63189 18 9.63189 18 9.63189C18 9.63189 18 9.63189 18 9.63189C18 9.63189 18 9.63189 18 9.63189C18 9.63189 18 9.63189 18 9.63189C18 9.63189 18 9.63189 18 9.63189C18 9.6319 18 9.6319 18 9.6319H20C20 9.6319 20 9.6319 20 9.63189C20 9.63189 20 9.63189 20 9.63189C20 9.63189 20 9.63189 20 9.63189C20 9.63189 20 9.63189 20 9.63189C20 9.63189 20 9.63189 20 9.63189C20 9.63189 20 9.63189 20 9.63189C20 9.63189 20 9.63189 20 9.63189C20 9.63189 20 9.63189 20 9.63189C20 9.63188 20 9.63188 20 9.63188C20 9.63188 20 9.63188 20 9.63188C20 9.63188 20 9.63188 20 9.63188C20 9.63188 20 9.63188 20 9.63188C20 9.63188 20 9.63188 20 9.63188C20 9.63188 20 9.63188 20 9.63188C20 9.63188 20 9.63188 20 9.63188C20 9.63188 20 9.63187 20 9.63187C20 9.63187 20 9.63187 20 9.63187C20 9.63187 20 9.63187 20 9.63187C20 9.63187 20 9.63187 20 9.63187C20 9.63187 20 9.63187 20 9.63187C20 9.63187 20 9.63187 20 9.63187C20 9.63187 20 9.63187 20 9.63187C20 9.63187 20 9.63186 20 9.63186C20 9.63186 20 9.63186 20 9.63186C20 9.63186 20 9.63186 20 9.63186C20 9.63186 20 9.63186 20 9.63186C20 9.63186 20 9.63186 20 9.63186C20 9.63186 20 9.63186 20 9.63186C20 9.63186 20 9.63186 20 9.63186C20 9.63186 20 9.63186 20 9.63185C20 9.63185 20 9.63185 20 9.63185C20 9.63185 20 9.63185 20 9.63185C20 9.63185 20 9.63185 20 9.63185C20 9.63185 20 9.63185 20 9.63185C20 9.63185 20 9.63185 20 9.63185C20 9.63185 20 9.63185 20 9.63185C20 9.63185 20 9.63185 20 9.63185C20 9.63184 20 9.63184 20 9.63184C20 9.63184 20 9.63184 20 9.63184C20 9.63184 20 9.63184 20 9.63184C20 9.63184 20 9.63184 20 9.63184C20 9.63184 20 9.63184 20 9.63184C20 9.63184 20 9.63184 20 9.63184C20 9.63184 20 9.63184 20 9.63184C20 9.63184 20 9.63183 20 9.63183C20 9.63183 20 9.63183 20 9.63183C20 9.63183 20 9.63183 20 9.63183C20 9.63183 20 9.63183 20 9.63183C20 9.63183 20 9.63183 20 9.63183C20 9.63183 20 9.63183 20 9.63183C20 9.63183 20 9.63183 20 9.63183C20 9.63183 20 9.63183 20 9.63182C20 9.63182 20 9.63182 20 9.63182C20 9.63182 20 9.63182 20 9.63182C20 9.63182 20 9.63182 20 9.63182C20 9.63182 20 9.63182 20 9.63182C20 9.63182 20 9.63182 20 9.63182C20 9.63182 20 9.63182 20 9.63182C20 9.63182 20 9.63182 20 9.63182C20 9.63181 20 9.63181 20 9.63181C20 9.63181 20 9.63181 20 9.63181C20 9.63181 20 9.63181 20 9.63181C20 9.63181 20 9.63181 20 9.63181C20 9.63181 20 9.63181 20 9.63181C20 9.63181 20 9.63181 20 9.63181C20 9.63181 20 9.63181 20 9.63181C20 9.63181 20 9.6318 20 9.6318C20 9.6318 20 9.6318 20 9.6318C20 9.6318 20 9.6318 20 9.6318C20 9.6318 20 9.6318 20 9.6318C20 9.6318 20 9.6318 20 9.6318C20 9.6318 20 9.6318 20 9.6318C20 9.6318 20 9.6318 20 9.6318C20 9.6318 20 9.6318 20 9.63179C20 9.63179 20 9.63179 20 9.63179C20 9.63179 20 9.63179 20 9.63179C20 9.63179 20 9.63179 20 9.63179C20 9.63179 20 9.63179 20 9.63179C20 9.63179 20 9.63179 20 9.63179C20 9.63179 20 9.63179 20 9.63179C20 9.63179 20 9.63179 20 9.63179C20 9.63178 20 9.63178 20 9.63178C20 9.63178 20 9.63178 20 9.63178C20 9.63178 20 9.63178 20 9.63178C20 9.63178 20 9.63178 20 9.63178C20 9.63178 20 9.63178 20 9.63178C20 9.63178 20 9.63178 20 9.63178C20 9.63178 20 9.63178 20 9.63178C20 9.63178 20 9.63177 20 9.63177C20 9.63177 20 9.63177 20 9.63177C20 9.63177 20 9.63177 20 9.63177C20 9.63177 20 9.63177 20 9.63177C20 9.63177 20 9.63177 20 9.63177C20 9.63177 20 9.63177 20 9.63177C20 9.63177 20 9.63177 20 9.63177C20 9.63177 20 9.63177 20 9.63176C20 9.63176 20 9.63176 20 9.63176C20 9.63176 20 9.63176 20 9.63176C20 9.63176 20 9.63176 20 9.63176C20 9.63176 20 9.63176 20 9.63176C20 9.63176 20 9.63176 20 9.63176C20 9.63176 20 9.63176 20 9.63176C20 9.63176 20 9.63176 20 9.63176C20 9.63175 20 9.63175 20 9.63175C20 9.63175 20 9.63175 20 9.63175C20 9.63175 20 9.63175 20 9.63175C20 9.63175 20 9.63175 20 9.63175C20 9.63175 20 9.63175 20 9.63175C20 9.63175 20 9.63175 20 9.63175C20 9.63175 20 9.63175 20 9.63175C20 9.63175 20 9.63174 20 9.63174C20 9.63174 20 9.63174 20 9.63174C20 9.63174 20 9.63174 20 9.63174C20 9.63174 20 9.63174 20 9.63174C20 9.63174 20 9.63174 20 9.63174C20 9.63174 20 9.63174 20 9.63174C20 9.63174 20 9.63174 20 9.63174C20 9.63174 20 9.63173 20 9.63173C20 9.63173 20 9.63173 20 9.63173C20 9.63173 20 9.63173 20 9.63173C20 9.63173 20 9.63173 20 9.63173C20 9.63173 20 9.63173 20 9.63173C20 9.63173 20 9.63173 20 9.63173C20 9.63173 20 9.63173 20 9.63173C20 9.63173 20 9.63173 20 9.63172C20 9.63172 20 9.63172 20 9.63172C20 9.63172 20 9.63172 20 9.63172C20 9.63172 20 9.63172 20 9.63172C20 9.63172 20 9.63172 20 9.63172C20 9.63172 20 9.63172 20 9.63172C20 9.63172 20 9.63172 20 9.63172C20 9.63172 20 9.63172 20 9.63172C20 9.63171 20 9.63171 20 9.63171C20 9.63171 20 9.63171 20 9.63171C20 9.63171 20 9.63171 20 9.63171C20 9.63171 20 9.63171 20 9.63171C20 9.63171 20 9.63171 20 9.63171C20 9.63171 20 9.63171 20 9.63171C20 9.63171 20 9.63171 20 9.63171C20 9.63171 20 9.6317 20 9.6317C20 9.6317 20 9.6317 20 9.6317C20 9.6317 20 9.6317 20 9.6317C20 9.6317 20 9.6317 20 9.6317C20 9.6317 20 9.6317 20 9.6317C20 9.6317 20 9.6317 20 9.6317C20 9.6317 20 9.6317 20 9.6317C20 9.6317 20 9.6317 20 9.63169C20 9.63169 20 9.63169 20 9.63169C20 9.63169 20 9.63169 20 9.63169C20 9.63169 20 9.63169 20 9.63169C20 9.63169 20 9.63169 20 9.63169C20 9.63169 20 9.63169 20 9.63169C20 9.63169 20 9.63169 20 9.63169C20 9.63169 20 9.63169 20 9.63169C20 9.63168 20 9.63168 20 9.63168C20 9.63168 20 9.63168 20 9.63168C20 9.63168 20 9.63168 20 9.63168C20 9.63168 20 9.63168 20 9.63168C20 9.63168 20 9.63168 20 9.63168C20 9.63168 20 9.63168 20 9.63168C20 9.63168 20 9.63168 20 9.63168C20 9.63168 20 9.63167 20 9.63167C20 9.63167 20 9.63167 20 9.63167C20 9.63167 20 9.63167 20 9.63167C20 9.63167 20 9.63167 20 9.63167C20 9.63167 20 9.63167 20 9.63167C20 9.63167 20 9.63167 20 9.63167C20 9.63167 20 9.63167 20 9.63167C20 9.63167 20 9.63167 20 9.63166C20 9.63166 20 9.63166 20 9.63166C20 9.63166 20 9.63166 20 9.63166C20 9.63166 20 9.63166 20 9.63166C20 9.63166 20 9.63166 20 9.63166C20 9.63166 20 9.63166 20 9.63166C20 9.63166 20 9.63166 20 9.63166C20 9.63166 20 9.63166 20 9.63166C20 9.63165 20 9.63165 20 9.63165C20 9.63165 20 9.63165 20 9.63165C20 9.63165 20 9.63165 20 9.63165C20 9.63165 20 9.63165 20 9.63165C20 9.63165 20 9.63165 20 9.63165C20 9.63165 20 9.63165 20 9.63165C20 9.63165 20 9.63165 20 9.63165C20 9.63165 20 9.63164 20 9.63164C20 9.63164 20 9.63164 20 9.63164C20 9.63164 20 9.63164 20 9.63164C20 9.63164 20 9.63164 20 9.63164C20 9.63164 20 9.63164 20 9.63164C20 9.63164 20 9.63164 20 9.63164C20 9.63164 20 9.63164 20 9.63164C20 9.63164 20 9.63164 20 9.63163C20 9.63163 20 9.63163 20 9.63163C20 9.63163 20 9.63163 20 9.63163C20 9.63163 20 9.63163 20 9.63163C20 9.63163 20 9.63163 20 9.63163C20 9.63163 20 9.63163 20 9.63163C20 9.63163 20 9.63163 20 9.63163C20 9.63163 20 9.63163 20 9.63163C20 9.63162 20 9.63162 20 9.63162C20 9.63162 20 9.63162 20 9.63162C20 9.63162 20 9.63162 20 9.63162C20 9.63162 20 9.63162 20 9.63162C20 9.63162 20 9.63162 20 9.63162C20 9.63162 20 9.63162 20 9.63162C20 9.63162 20 9.63162 20 9.63162C20 9.63162 20 9.63161 20 9.63161C20 9.63161 20 9.63161 20 9.63161C20 9.63161 20 9.63161 20 9.63161C20 9.63161 20 9.63161 20 9.63161C20 9.63161 20 9.63161 20 9.63161C20 9.63161 20 9.63161 20 9.63161C20 9.63161 20 9.63161 20 9.63161C20 9.63161 20 9.63161 20 9.6316C20 9.6316 20 9.6316 20 9.6316C20 9.6316 20 9.6316 20 9.6316C20 9.6316 20 9.6316 20 9.6316C20 9.6316 20 9.6316 20 9.6316C20 9.6316 20 9.6316 20 9.6316C20 9.6316 20 9.6316 20 9.6316C20 9.6316 20 9.6316 20 9.6316C20 9.63159 20 9.63159 20 9.63159C20 9.63159 20 9.63159 20 9.63159C20 9.63159 20 9.63159 20 9.63159C20 9.63159 20 9.63159 20 9.63159C20 9.63159 20 9.63159 20 9.63159C20 9.63159 20 9.63159 20 9.63159C20 9.63159 20 9.63159 20 9.63159C20 9.63158 20 9.63158 20 9.63158C20 9.63158 20 9.63158 20 9.63158C20 9.63158 20 9.63158 20 9.63158C20 9.63158 20 9.63158 20 9.63158C20 9.63158 20 9.63158 20 9.63158C20 9.63158 20 9.63158 20 9.63158C20 9.63158 20 9.63158 20 9.63158C20 9.63158 20 9.63157 20 9.63157C20 9.63157 20 9.63157 20 9.63157C20 9.63157 20 9.63157 20 9.63157C20 9.63157 20 9.63157 20 9.63157C20 9.63157 20 9.63157 20 9.63157C20 9.63157 20 9.63157 20 9.63157C20 9.63157 20 9.63157 20 9.63157C20 9.63157 20 9.63157 20 9.63156C20 9.63156 20 9.63156 20 9.63156C20 9.63156 20 9.63156 20 9.63156C20 9.63156 20 9.63156 20 9.63156C20 9.63156 20 9.63156 20 9.63156C20 9.63156 20 9.63156 20 9.63156C20 9.63156 20 9.63156 20 9.63156C20 9.63156 20 9.63156 20 9.63156C20 9.63155 20 9.63155 20 9.63155C20 9.63155 20 9.63155 20 9.63155C20 9.63155 20 9.63155 20 9.63155C20 9.63155 20 9.63155 20 9.63155C20 9.63155 20 9.63155 20 9.63155C20 9.63155 20 9.63155 20 9.63155C20 9.63155 20 9.63155 20 9.63155C20 9.63155 20 9.63154 20 9.63154C20 9.63154 20 9.63154 20 9.63154C20 9.63154 20 9.63154 20 9.63154C20 9.63154 20 9.63154 20 9.63154C20 9.63154 20 9.63154 20 9.63154C20 9.63154 20 9.63154 20 9.63154C20 9.63154 20 9.63154 20 9.63154C20 9.63154 20 9.63154 20 9.63153C20 9.63153 20 9.63153 20 9.63153C20 9.63153 20 9.63153 20 9.63153C20 9.63153 20 9.63153 20 9.63153C20 9.63153 20 9.63153 20 9.63153C20 9.63153 20 9.63153 20 9.63153C20 9.63153 20 9.63153 20 9.63153C20 9.63153 20 9.63153 20 9.63153C20 9.63152 20 9.63152 20 9.63152C20 9.63152 20 9.63152 20 9.63152C20 9.63152 20 9.63152 20 9.63152C20 9.63152 20 9.63152 20 9.63152C20 9.63152 20 9.63152 20 9.63152C20 9.63152 20 9.63152 20 9.63152C20 9.63152 20 9.63152 20 9.63152C20 9.63152 20 9.63151 20 9.63151C20 9.63151 20 9.63151 20 9.63151C20 9.63151 20 9.63151 20 9.63151C20 9.63151 20 9.63151 20 9.63151C20 9.63151 20 9.63151 20 9.63151C20 9.63151 20 9.63151 20 9.63151C20 9.63151 20 9.63151 20 9.63151C20 9.63151 20 9.63151 20 9.6315C20 9.6315 20 9.6315 20 9.6315C20 9.6315 20 9.6315 20 9.6315C20 9.6315 20 9.6315 20 9.6315C20 9.6315 20 9.6315 20 9.6315C20 9.6315 20 9.6315 20 9.6315C20 9.6315 20 9.6315 20 9.6315C20 9.6315 20 9.6315 20 9.6315C20 9.63149 20 9.63149 20 9.63149C20 9.63149 20 9.63149 20 9.63149C20 9.63149 20 9.63149 20 9.63149C20 9.63149 20 9.63149 20 9.63149C20 9.63149 20 9.63149 20 9.63149C20 9.63149 20 9.63149 20 9.63149C20 9.63149 20 9.63149 20 9.63149C20 9.63149 20 9.63148 20 9.63148C20 9.63148 20 9.63148 20 9.63148C20 9.63148 20 9.63148 20 9.63148C20 9.63148 20 9.63148 20 9.63148C20 9.63148 20 9.63148 20 9.63148C20 9.63148 20 9.63148 20 9.63148C20 9.63148 20 9.63148 20 9.63148C20 9.63148 20 9.63148 20 9.63147C20 9.63147 20 9.63147 20 9.63147C20 9.63147 20 9.63147 20 9.63147C20 9.63147 20 9.63147 20 9.63147C20 9.63147 20 9.63147 20 9.63147C20 9.63147 20 9.63147 20 9.63147C20 9.63147 20 9.63147 20 9.63147C20 9.63147 20 9.63147 20 9.63147C20 9.63146 20 9.63146 20 9.63146C20 9.63146 20 9.63146 20 9.63146C20 9.63146 20 9.63146 20 9.63146C20 9.63146 20 9.63146 20 9.63146C20 9.63146 20 9.63146 20 9.63146C20 9.63146 20 9.63146 20 9.63146C20 9.63146 20 9.63146 20 9.63146C20 9.63146 20 9.63145 20 9.63145C20 9.63145 20 9.63145 20 9.63145C20 9.63145 20 9.63145 20 9.63145C20 9.63145 20 9.63145 20 9.63145C20 9.63145 20 9.63145 20 9.63145C20 9.63145 20 9.63145 20 9.63145C20 9.63145 20 9.63145 20 9.63145C20 9.63145 20 9.63145 20 9.63144C20 9.63144 20 9.63144 20 9.63144C20 9.63144 20 9.63144 20 9.63144C20 9.63144 20 9.63144 20 9.63144C20 9.63144 20 9.63144 20 9.63144C20 9.63144 20 9.63144 20 9.63144C20 9.63144 20 9.63144 20 9.63144C20 9.63144 20 9.63144 20 9.63143C20 9.63143 20 9.63143 20 9.63143C20 9.63143 20 9.63143 20 9.63143C20 9.63143 20 9.63143 20 9.63143C20 9.63143 20 9.63143 20 9.63143C20 9.63143 20 9.63143 20 9.63143C20 9.63143 20 9.63143 20 9.63143C20 9.63143 20 9.63143 20 9.63143C20 9.63142 20 9.63142 20 9.63142C20 9.63142 20 9.63142 20 9.63142C20 9.63142 20 9.63142 20 9.63142C20 9.63142 20 9.63142 20 9.63142C20 9.63142 20 9.63142 20 9.63142C20 9.63142 20 9.63142 20 9.63142C20 9.63142 20 9.63142 20 9.63142C20 9.63142 20 9.63141 20 9.63141C20 9.63141 20 9.63141 20 9.63141C20 9.63141 20 9.63141 20 9.63141C20 9.63141 20 9.63141 20 9.63141C20 9.63141 20 9.63141 20 9.63141C20 9.63141 20 9.63141 20 9.63141C20 9.63141 20 9.63141 20 9.63141C20 9.63141 20 9.63141 20 9.6314C20 9.6314 20 9.6314 20 9.6314C20 9.6314 20 9.6314 20 9.6314C20 9.6314 20 9.6314 20 9.6314C20 9.6314 20 9.6314 20 9.6314C20 9.6314 20 9.6314 20 9.6314C20 9.6314 20 9.6314 20 9.6314C20 9.6314 20 9.6314 20 9.6314C20 9.63139 20 9.63139 20 9.63139C20 9.63139 20 9.63139 20 9.63139C20 9.63139 20 9.63139 20 9.63139C20 9.63139 20 9.63139 20 9.63139C20 9.63139 20 9.63139 20 9.63139C20 9.63139 20 9.63139 20 9.63139C20 9.63139 20 9.63139 20 9.63139C20 9.63139 20 9.63138 20 9.63138C20 9.63138 20 9.63138 20 9.63138C20 9.63138 20 9.63138 20 9.63138C20 9.63138 20 9.63138 20 9.63138C20 9.63138 20 9.63138 20 9.63138C20 9.63138 20 9.63138 20 9.63138C20 9.63138 20 9.63138 20 9.63138C20 9.63138 20 9.63138 20 9.63137C20 9.63137 20 9.63137 20 9.63137C20 9.63137 20 9.63137 20 9.63137C20 9.63137 20 9.63137 20 9.63137C20 9.63137 20 9.63137 20 9.63137C20 9.63137 20 9.63137 20 9.63137C20 9.63137 20 9.63137 20 9.63137C20 9.63137 20 9.63137 20 9.63137C20 9.63136 20 9.63136 20 9.63136C20 9.63136 20 9.63136 20 9.63136C20 9.63136 20 9.63136 20 9.63136C20 9.63136 20 9.63136 20 9.63136C20 9.63136 20 9.63136 20 9.63136C20 9.63136 20 9.63136 20 9.63136C20 9.63136 20 9.63136 20 9.63136C20 9.63136 20 9.63135 20 9.63135C20 9.63135 20 9.63135 20 9.63135C20 9.63135 20 9.63135 20 9.63135C20 9.63135 20 9.63135 20 9.63135C20 9.63135 20 9.63135 20 9.63135C20 9.63135 20 9.63135 20 9.63135C20 9.63135 20 9.63135 20 9.63135C20 9.63135 20 9.63135 20 9.63134C20 9.63134 20 9.63134 20 9.63134C20 9.63134 20 9.63134 20 9.63134C20 9.63134 20 9.63134 20 9.63134C20 9.63134 20 9.63134 20 9.63134C20 9.63134 20 9.63134 20 9.63134C20 9.63134 20 9.63134 20 9.63134C20 9.63134 20 9.63134 20 9.63134C20 9.63133 20 9.63133 20 9.63133C20 9.63133 20 9.63133 20 9.63133C20 9.63133 20 9.63133 20 9.63133C20 9.63133 20 9.63133 20 9.63133C20 9.63133 20 9.63133 20 9.63133C20 9.63133 20 9.63133 20 9.63133C20 9.63133 20 9.63133 20 9.63133C20 9.63133 20 9.63132 20 9.63132C20 9.63132 20 9.63132 20 9.63132C20 9.63132 20 9.63132 20 9.63132C20 9.63132 20 9.63132 20 9.63132C20 9.63132 20 9.63132 20 9.63132C20 9.63132 20 9.63132 20 9.63132C20 9.63132 20 9.63132 20 9.63132C20 9.63132 20 9.63132 20 9.63131C20 9.63131 20 9.63131 20 9.63131C20 9.63131 20 9.63131 20 9.63131C20 9.63131 20 9.63131 20 9.63131C20 9.63131 20 9.63131 20 9.63131C20 9.63131 20 9.63131 20 9.63131C20 9.63131 20 9.63131 20 9.63131C20 9.63131 20 9.63131 20 9.63131C20 9.6313 20 9.6313 20 9.6313C20 9.6313 20 9.6313 20 9.6313C20 9.6313 20 9.6313 20 9.6313C20 9.6313 20 9.6313 20 9.6313C20 9.6313 20 9.6313 20 9.6313C20 9.6313 20 9.6313 20 9.6313C20 9.6313 20 9.6313 20 9.6313C20 9.6313 20 9.63129 20 9.63129C20 9.63129 20 9.63129 20 9.63129C20 9.63129 20 9.63129 20 9.63129C20 9.63129 20 9.63129 20 9.63129C20 9.63129 20 9.63129 20 9.63129C20 9.63129 20 9.63129 20 9.63129C20 9.63129 20 9.63129 20 9.63129C20 9.63129 20 9.63128 20 9.63128C20 9.63128 20 9.63128 20 9.63128C20 9.63128 20 9.63128 20 9.63128C20 9.63128 20 9.63128 20 9.63128C20 9.63128 20 9.63128 20 9.63128C20 9.63128 20 9.63128 20 9.63128C20 9.63128 20 9.63128 20 9.63128C20 9.63128 20 9.63128 20 9.63127C20 9.63127 20 9.63127 20 9.63127C20 9.63127 20 9.63127 20 9.63127C20 9.63127 20 9.63127 20 9.63127C20 9.63127 20 9.63127 20 9.63127C20 9.63127 20 9.63127 20 9.63127C20 9.63127 20 9.63127 20 9.63127C20 9.63127 20 9.63127 20 9.63127C20 9.63126 20 9.63126 20 9.63126C20 9.63126 20 9.63126 20 9.63126C20 9.63126 20 9.63126 20 9.63126C20 9.63126 20 9.63126 20 9.63126C20 9.63126 20 9.63126 20 9.63126C20 9.63126 20 9.63126 20 9.63126C20 9.63126 20 9.63126 20 9.63126C20 9.63126 20 9.63125 20 9.63125C20 9.63125 20 9.63125 20 9.63125C20 9.63125 20 9.63125 20 9.63125C20 9.63125 20 9.63125 20 9.63125C20 9.63125 20 9.63125 20 9.63125C20 9.63125 20 9.63125 20 9.63125C20 9.63125 20 9.63125 20 9.63125C20 9.63125 20 9.63125 20 9.63124C20 9.63124 20 9.63124 20 9.63124C20 9.63124 20 9.63124 20 9.63124C20 9.63124 20 9.63124 20 9.63124C20 9.63124 20 9.63124 20 9.63124C20 9.63124 20 9.63124 20 9.63124C20 9.63124 20 9.63124 20 9.63124C20 9.63124 20 9.63124 20 9.63124C20 9.63123 20 9.63123 20 9.63123C20 9.63123 20 9.63123 20 9.63123C20 9.63123 20 9.63123 20 9.63123C20 9.63123 20 9.63123 20 9.63123C20 9.63123 20 9.63123 20 9.63123C20 9.63123 20 9.63123 20 9.63123C20 9.63123 20 9.63123 20 9.63123C20 9.63123 20 9.63122 20 9.63122C20 9.63122 20 9.63122 20 9.63122C20 9.63122 20 9.63122 20 9.63122C20 9.63122 20 9.63122 20 9.63122C20 9.63122 20 9.63122 20 9.63122C20 9.63122 20 9.63122 20 9.63122C20 9.63122 20 9.63122 20 9.63122C20 9.63122 20 9.63122 20 9.63121C20 9.63121 20 9.63121 20 9.63121C20 9.63121 20 9.63121 20 9.63121C20 9.63121 20 9.63121 20 9.63121C20 9.63121 20 9.63121 20 9.63121C20 9.63121 20 9.63121 20 9.63121C20 9.63121 20 9.63121 20 9.63121C20 9.63121 20 9.63121 20 9.63121C20 9.6312 20 9.6312 20 9.6312C20 9.6312 20 9.6312 20 9.6312C20 9.6312 20 9.6312 20 9.6312C20 9.6312 20 9.6312 20 9.6312C20 9.6312 20 9.6312 20 9.6312C20 9.6312 20 9.6312 20 9.6312C20 9.6312 20 9.6312 20 9.6312H18Z" fill="white" mask="url(#path-1-inside-1_388_890)"/>
</svg>
