<svg width="20" height="20" viewBox="0 0 20 20" fill="none" xmlns="http://www.w3.org/2000/svg">
<path d="M15.964 0.706663C15.5735 0.316349 14.9405 0.316462 14.55 0.706914L1.41033 13.8473C1.27109 13.9866 1.17607 14.1638 1.13717 14.3568L0.297293 18.5247C0.156074 19.2255 0.774488 19.8438 1.47527 19.7025L5.64228 18.8622C5.83529 18.8233 6.01251 18.7282 6.15173 18.589L19.2927 5.44734C19.6833 5.05672 19.6832 4.42339 19.2925 4.03291L15.964 0.706663ZM3.60504 17.5724C2.90418 17.7137 2.2857 17.0953 2.42706 16.3944L2.67232 15.1784C2.71125 14.9854 2.80626 14.8082 2.94546 14.669L12.2253 5.38888C12.6158 4.99831 13.2491 4.99834 13.6396 5.38895L14.61 6.35957C15.0004 6.7501 15.0004 7.3832 14.6099 7.77369L5.32994 17.054C5.19073 17.1932 5.01353 17.2883 4.82054 17.3272L3.60504 17.5724ZM17.0694 5.31398C16.7524 5.63115 16.2383 5.6312 15.9213 5.31409L14.6847 4.0772C14.3678 3.76026 14.3678 3.24645 14.6848 2.92956V2.92956C15.0017 2.61269 15.5155 2.61269 15.8324 2.92956L17.0692 4.16623C17.3861 4.48314 17.3862 4.99696 17.0694 5.31398V5.31398Z" fill="white"/>
</svg>
