<svg width="24" height="24" viewBox="0 0 24 24" fill="none" xmlns="http://www.w3.org/2000/svg">
<g clip-path="url(#clip0_148_570)">
<path d="M8.99701 13.985C9.00701 15.089 8.11701 15.993 7.01101 16C5.90601 16.009 5.00601 15.12 5.00001 14.016C4.99001 12.911 5.87901 12.011 6.98201 12C8.08801 11.993 8.99101 12.883 8.99701 13.985ZM8.01901 9.999C6.91501 10.007 6.01101 9.119 6.00401 8.012C5.99501 6.909 6.88101 6.008 7.98801 6.001C9.09001 5.991 9.99601 6.878 10 7.983C10.012 9.09 9.12001 9.989 8.01901 9.999ZM16 5.985C16.004 7.087 15.119 7.993 14.015 8C12.909 8.01 12.007 7.121 12 6.017C11.989 4.911 12.878 4.011 13.985 4.002C15.086 3.996 15.99 4.883 16 5.985V5.985ZM4.00001 21.832C8.58701 22.212 6.94401 17.34 11.188 17.295L13.026 18.829C13.484 24.366 6.71101 25.601 4.00001 21.832ZM18.065 14.717C19.492 12.478 23.911 4.969 23.911 4.969C24.264 4.346 23.482 3.696 22.936 4.156C22.936 4.156 16.364 9.87 14.425 11.681C12.893 13.113 12.886 13.767 12.39 16.128L14.07 17.528C16.297 16.613 16.938 16.488 18.065 14.717V14.717ZM5.44301 19.523C3.35901 17.703 2.02301 15.044 2.00001 12.076C1.95601 6.566 6.40601 2.046 11.92 2.001C15.758 1.98 18.399 3.906 18.416 5.448L20.079 3.992C19.069 1.769 15.897 -0.0529994 11.903 5.53322e-07C5.28001 0.0550006 -0.0519891 5.466 1.09229e-05 12.092C0.0230109 15.004 1.08301 17.662 2.82301 19.727C3.78101 20.219 4.94601 20.056 5.44301 19.523V19.523ZM18.24 17.617C19.299 19.587 16.889 20.987 14.695 21.609C14.391 22.521 13.892 23.33 13.321 23.92C18.576 23.329 22.382 19.616 19.587 16.031C19.128 16.716 18.69 17.228 18.24 17.617V17.617Z" fill="black"/>
</g>
<defs>
<clipPath id="clip0_148_570">
<rect width="24" height="24" fill="white"/>
</clipPath>
</defs>
</svg>
