<svg width="24" height="24" viewBox="0 0 24 24" fill="none" xmlns="http://www.w3.org/2000/svg">
<path d="M17.9998 17.4409V11.4409C17.9998 8.13253 15.3082 5.44092 11.9998 5.44092C8.69141 5.44092 5.9998 8.13253 5.9998 11.4409V17.4409C5.33699 17.4409 4.7998 17.9781 4.7998 18.6409V19.8409C4.7998 20.5037 5.33699 21.0409 5.9998 21.0409H17.9998C18.6626 21.0409 19.1998 20.5037 19.1998 19.8409V18.6409C19.1998 17.9782 18.6626 17.4409 17.9998 17.4409ZM7.1998 11.4409C7.1998 8.78971 9.34902 6.64092 11.9998 6.64092C14.6506 6.64092 16.7998 8.78971 16.7998 11.4409V17.4409H7.1998V11.4409ZM17.9998 19.8409H5.9998V18.6409H17.9998V19.8409Z" fill="white"/>
<path d="M6.06358 5.50378L5.21556 4.65576C3.4772 6.39375 2.40039 8.79375 2.40039 11.4405C2.40039 13.2453 2.91039 14.9289 3.77997 16.3729L4.80756 15.7565C4.04641 14.4929 3.60039 13.0198 3.60039 11.4405C3.60039 9.12454 4.54239 7.02454 6.06358 5.50378Z" fill="white"/>
<path d="M18.7855 4.65576L17.9375 5.50378C19.4583 7.02496 20.4003 9.12497 20.4003 11.441C20.4003 13.0202 19.9543 14.4934 19.1935 15.757L20.2211 16.3734C21.0903 14.9294 21.6003 13.2454 21.6003 11.441C21.6003 8.79417 20.5235 6.39417 18.7855 4.65576Z" fill="white"/>
<path d="M20.4812 2.95898L19.6328 3.80737C21.5888 5.76295 22.8 8.46295 22.8 11.4406C22.8 13.471 22.2264 15.3654 21.248 16.9894L22.2756 17.6062C23.3628 15.8014 24 13.6965 24 11.4405C24 8.13178 22.6544 5.13178 20.4812 2.95898Z" fill="white"/>
<path d="M4.36678 3.80737L3.51881 2.95898C1.34559 5.13178 0 8.13178 0 11.4405C0 13.6965 0.637219 15.8013 1.72402 17.6062L2.75161 16.9894C1.77361 15.365 1.2 13.4706 1.2 11.4405C1.2 8.46295 2.4112 5.76295 4.36678 3.80737Z" fill="white"/>
</svg>
