<svg width="24" height="22" viewBox="0 0 24 22" fill="none" xmlns="http://www.w3.org/2000/svg">
<path d="M10 2.002C14.411 2.002 18 4.851 18 8.352C18 11.387 14.971 14.663 10.075 14.663C8.495 14.663 7.357 14.346 6.357 14.102C5.391 14.695 5.101 14.915 3.351 15.475C3.766 13.957 3.713 13.293 3.682 12.291C2.845 11.29 2 10.222 2 8.352C2 4.851 5.589 2.002 10 2.002V2.002ZM10 0C4.719 0 0 3.526 0 8.352C0 10.063 0.615 11.743 1.705 13.047C1.752 14.574 0.854 16.765 0.044 18.359C2.212 17.968 5.296 17.101 6.693 16.244C7.874 16.533 9.005 16.665 10.075 16.665C15.978 16.665 20 12.627 20 8.352C20 3.5 15.249 0 10 0V0ZM21.535 11.174C21.374 11.662 21.174 12.135 20.934 12.59C22.611 13.852 23.191 15.816 21.398 17.955C21.377 18.7 21.349 19.004 21.536 19.82C20.644 19.513 20.557 19.428 19.871 19.007C17.744 19.526 15.606 19.703 13.782 18.152C13.22 18.311 12.637 18.43 12.042 18.516C13.555 20.393 16.34 21.413 19.619 20.616C20.533 21.177 22.552 21.743 23.971 22.001C23.441 20.956 22.854 19.522 22.883 18.522C24.638 16.424 24.426 13.086 21.535 11.174V11.174ZM6.5 7.411C5.909 7.411 5.429 7.89 5.429 8.482C5.429 9.074 5.909 9.553 6.5 9.553C7.091 9.553 7.571 9.074 7.571 8.482C7.571 7.89 7.091 7.411 6.5 7.411ZM10 7.411C9.409 7.411 8.929 7.89 8.929 8.482C8.929 9.074 9.409 9.553 10 9.553C10.591 9.553 11.071 9.074 11.071 8.482C11.071 7.89 10.591 7.411 10 7.411ZM13.5 7.411C12.909 7.411 12.429 7.89 12.429 8.482C12.429 9.074 12.909 9.553 13.5 9.553C14.091 9.553 14.571 9.074 14.571 8.482C14.571 7.89 14.091 7.411 13.5 7.411Z" fill="white"/>
</svg>
