<svg width="20" height="20" viewBox="0 0 20 20" fill="none" xmlns="http://www.w3.org/2000/svg">
<path d="M15.3983 0.141333C15.3202 0.06327 15.1936 0.0632924 15.1155 0.141383L1.23952 14.0181C1.21167 14.046 1.19267 14.0814 1.18489 14.12L0.0594587 19.7049C0.0312147 19.8451 0.154898 19.9688 0.295053 19.9405L5.87905 18.8144C5.91765 18.8067 5.9531 18.7876 5.98094 18.7598L19.8585 4.88147C19.9367 4.80334 19.9366 4.67668 19.8585 4.59858L15.3983 0.141333ZM2.42456 17.8105C2.28438 17.8387 2.16069 17.7151 2.18896 17.5749L2.72007 14.9417C2.72786 14.9031 2.74686 14.8676 2.7747 14.8398L12.791 4.82311C12.8691 4.745 12.9958 4.745 13.0739 4.82312L15.1755 6.92525C15.2536 7.00335 15.2536 7.12997 15.1755 7.20807L5.15917 17.2248C5.13132 17.2526 5.09588 17.2717 5.05729 17.2794L2.42456 17.8105ZM16.6368 5.74681C16.5587 5.82496 16.432 5.82497 16.3539 5.74684L14.2523 3.64476C14.1742 3.56665 14.1742 3.44003 14.2524 3.36193L15.1172 2.49723C15.1953 2.41914 15.3219 2.41914 15.4 2.49723L17.5016 4.59862C17.5797 4.67671 17.5798 4.80332 17.5017 4.88143L16.6368 5.74681Z" fill="white"/>
</svg>
