<svg width="24" height="24" viewBox="0 0 24 24" fill="none" xmlns="http://www.w3.org/2000/svg">
<g clip-path="url(#clip0_145_568)">
<path d="M0 0C2.799 1.2 8.683 0.955 8.307 6.371L6.164 8.557C0.826 8.65 0.925 2.952 0 0H0ZM10.884 15.402C13.592 17.45 22.708 23.853 22.708 23.853C23.462 24.366 24.37 23.436 23.844 22.691C23.844 22.691 17.237 13.727 15.125 11.072C13.457 8.971 12.623 8.897 9.665 8.026L7.712 10.023C8.648 12.954 8.745 13.783 10.884 15.402V15.402ZM6.007 18.734L8.627 16.108C8.367 15.864 8.138 15.623 7.937 15.384L5.3 18.027L6.007 18.734ZM14.251 7.572L19.055 2.758L21.209 4.913L16.513 9.619C16.951 10.144 17.326 10.64 17.759 11.203L24 4.95L19.051 0L12.33 6.733C13.035 6.962 13.658 7.216 14.251 7.572V7.572ZM19.088 4.206L15.116 8.187C15.356 8.386 15.6 8.61 15.848 8.868L19.794 4.912L19.088 4.206V4.206ZM9.387 16.76L5.787 20.367L2.808 21.192L3.632 18.213L7.309 14.528C6.953 13.945 6.692 13.325 6.45 12.624L1.824 17.259L0 24L6.773 22.209L11 17.975C10 17.247 9.97 17.226 9.387 16.76V16.76Z" fill="black"/>
</g>
<defs>
<clipPath id="clip0_145_568">
<rect width="24" height="24" fill="white"/>
</clipPath>
</defs>
</svg>
