<svg width="24" height="24" viewBox="0 0 24 24" fill="none" xmlns="http://www.w3.org/2000/svg">
<circle cx="7.325" cy="9.325" r="1.325" fill="white"/>
<path d="M8.52915 13.0884L6.86406 14.1588C6.02452 14.6985 6.40676 16 7.40481 16H16.5858C17.4767 16 17.9229 14.9229 17.2929 14.2929L14.7171 11.7171C14.3227 11.3227 13.6819 11.3272 13.293 11.7272L11.7245 13.3405C11.4245 13.6491 10.9608 13.7311 10.5732 13.5442L9.50421 13.0288C9.19094 12.8778 8.82169 12.9003 8.52915 13.0884Z" fill="white" stroke="white" stroke-width="2"/>
<path d="M3 18V7C3 6.44772 3.44772 6 4 6H20C20.5523 6 21 6.44772 21 7V18C21 18.5523 20.5523 19 20 19H4C3.44772 19 3 18.5523 3 18Z" stroke="white" stroke-width="2"/>
</svg>
