<svg width="20" height="24" viewBox="0 0 20 24" fill="none" xmlns="http://www.w3.org/2000/svg">
<path fill-rule="evenodd" clip-rule="evenodd" d="M17 24H3C1.896 24 1 23.104 1 22V5H0V3H6V1.5C6 0.673 6.673 0 7.5 0H12.5C13.325 0 14 0.671 14 1.5V3H20V5H19V22C19 23.104 18.104 24 17 24ZM17 5H3V21.5C3 21.776 3.224 22 3.5 22H16.5C16.776 22 17 21.776 17 21.5V5ZM8 9C8 8.448 7.552 8 7 8C6.448 8 6 8.448 6 9V18C6 18.552 6.448 19 7 19C7.552 19 8 18.552 8 18V9ZM14 9C14 8.448 13.552 8 13 8C12.448 8 12 8.448 12 9V18C12 18.552 12.448 19 13 19C13.552 19 14 18.552 14 18V9ZM12 2H8V3H12V2Z" fill="white"/>
</svg>
