<svg width="172" height="172" viewBox="0 0 172 172" fill="none" xmlns="http://www.w3.org/2000/svg">
<path d="M172 0H0V172H172V0Z" fill="black"/>
<rect x="64" y="37" width="67" height="98" rx="5" fill="white"/>
<path fill-rule="evenodd" clip-rule="evenodd" d="M60 42.7391C60 42.7421 60 42.7451 60 42.7481L60 130C60 132.761 57.7614 135 55 135H46.0001C43.2386 135 41.0001 132.761 41.0001 130L41.0001 54.7062C41.0001 54.7049 41.0001 54.7036 41.0001 54.7023V38C41.0001 37.4477 41.4478 37 42.0001 37H59C59.5523 37 60 37.4477 60 38L60 42.7391Z" fill="white" fill-opacity="0.85"/>
<rect x="63.6599" y="37" width="16.38" height="98" fill="white"/>
<path d="M84.5 73H78.5C74.9101 73 72 75.9101 72 79.5C72 83.0899 74.9101 86 78.5 86H84.5C88.0899 86 91 83.0899 91 79.5C91 75.9101 88.0899 73 84.5 73Z" fill="black"/>
<path d="M109.5 73H103.5C99.9101 73 97 75.9101 97 79.5C97 83.0899 99.9101 86 103.5 86H109.5C113.09 86 116 83.0899 116 79.5C116 75.9101 113.09 73 109.5 73Z" fill="black"/>
<path d="M98 79H90V81H98V79Z" fill="black"/>
<path d="M79 76H76V78H79V76Z" fill="#FFF8F8"/>
<path d="M115.5 78.5L124.5 74" stroke="black"/>
<path d="M104 76H101V78H104V76Z" fill="#FFF8F8"/>
</svg>
