<svg width="47" height="422" viewBox="0 0 47 422" fill="none" xmlns="http://www.w3.org/2000/svg">
<path d="M21.6218 14.219C22.2452 14.285 22.8282 14.3033 23.3708 14.274C23.9135 14.2447 24.3828 14.1457 24.7788 13.977C24.9622 13.8377 25.1418 13.6543 25.3178 13.427C25.4938 13.1923 25.6478 12.9247 25.7798 12.624C25.9118 12.3233 26.0182 11.997 26.0988 11.645C26.1795 11.293 26.2198 10.93 26.2198 10.556C26.2198 9.984 26.1355 9.47067 25.9668 9.016C25.7982 8.56133 25.5708 8.18 25.2848 7.872C24.9988 7.55667 24.6652 7.322 24.2838 7.168C23.9025 7.00667 23.4992 6.93333 23.0738 6.948L21.6218 7.003V14.219ZM21.3578 14.703C21.1745 14.703 20.9178 14.714 20.5878 14.736C20.2578 14.7507 19.9352 14.7727 19.6198 14.802V14.604C19.9572 14.5967 20.2102 14.5343 20.3788 14.417C20.5548 14.2923 20.6428 14.054 20.6428 13.702V7.663C20.6428 7.311 20.5622 7.07633 20.4008 6.959C20.2395 6.83433 19.9902 6.76833 19.6528 6.761V6.552C19.7848 6.56667 19.9388 6.58133 20.1148 6.596C20.2908 6.61067 20.4668 6.62167 20.6428 6.629C20.8262 6.63633 20.9985 6.64367 21.1598 6.651C21.3212 6.651 21.4458 6.651 21.5338 6.651L23.3928 6.607C23.9135 6.59233 24.4048 6.66567 24.8668 6.827C25.3362 6.98833 25.7432 7.22667 26.0878 7.542C26.4398 7.85733 26.7185 8.24233 26.9238 8.697C27.1292 9.14433 27.2318 9.65033 27.2318 10.215C27.2318 10.809 27.1622 11.3333 27.0228 11.788C26.8835 12.2427 26.7038 12.635 26.4838 12.965C26.2712 13.2877 26.0292 13.5553 25.7578 13.768C25.4938 13.9733 25.2335 14.1273 24.9768 14.23L24.3608 14.483C24.2508 14.527 24.0895 14.5637 23.8768 14.593C23.6715 14.6223 23.4368 14.6443 23.1728 14.659C22.9088 14.6737 22.6192 14.6847 22.3038 14.692C21.9958 14.6993 21.6805 14.703 21.3578 14.703Z" fill="white" fill-opacity="0.5"/>
<path d="M23.0308 25.996C22.9208 26.0107 22.8108 26.0217 22.7008 26.029C22.5908 26.0363 22.4808 26.04 22.3708 26.04L22.0408 26.051V28.713C22.0408 28.8817 22.0628 29.0247 22.1068 29.142C22.1508 29.252 22.2241 29.3437 22.3268 29.417C22.4294 29.483 22.5651 29.5307 22.7338 29.56C22.9024 29.5893 23.1151 29.604 23.3718 29.604V29.802C23.0491 29.7727 22.7411 29.7507 22.4478 29.736C22.1544 29.714 21.8538 29.703 21.5458 29.703C21.3624 29.703 21.1424 29.714 20.8858 29.736C20.6364 29.7507 20.3541 29.7727 20.0388 29.802V29.604C20.3761 29.5967 20.6291 29.5343 20.7978 29.417C20.9738 29.2923 21.0618 29.054 21.0618 28.702V22.663C21.0618 22.311 20.9811 22.0763 20.8198 21.959C20.6584 21.8343 20.4091 21.7683 20.0718 21.761V21.552C20.2038 21.5667 20.3578 21.5813 20.5338 21.596C20.7098 21.6107 20.8858 21.6253 21.0618 21.64C21.2451 21.6473 21.4174 21.6547 21.5788 21.662C21.7401 21.662 21.8648 21.6583 21.9528 21.651L23.4158 21.552C23.7531 21.574 24.0648 21.629 24.3508 21.717C24.6441 21.805 24.8971 21.9297 25.1098 22.091C25.3224 22.245 25.4911 22.443 25.6158 22.685C25.7404 22.9197 25.8028 23.1983 25.8028 23.521C25.8028 23.851 25.7514 24.1443 25.6488 24.401C25.5534 24.6503 25.4214 24.8703 25.2528 25.061C25.0841 25.2443 24.8861 25.3983 24.6588 25.523C24.4314 25.6477 24.1894 25.7467 23.9328 25.82L25.7588 28.614C25.9421 28.9073 26.1548 29.1457 26.3968 29.329C26.6388 29.505 26.9468 29.5967 27.3208 29.604V29.802C27.0641 29.7727 26.8221 29.7507 26.5948 29.736C26.3674 29.714 26.1364 29.703 25.9018 29.703C25.6598 29.703 25.4214 29.714 25.1868 29.736C24.9521 29.7507 24.6734 29.7727 24.3508 29.802V29.604C24.6001 29.5967 24.7724 29.5637 24.8678 29.505C24.9631 29.4463 25.0108 29.3693 25.0108 29.274C25.0108 29.186 24.9814 29.0907 24.9228 28.988C24.8714 28.8853 24.8128 28.7827 24.7468 28.68L23.0308 25.996ZM22.0408 25.743L22.3048 25.732C23.0748 25.7027 23.6798 25.5157 24.1198 25.171C24.5598 24.819 24.7798 24.28 24.7798 23.554C24.7798 23.1213 24.6734 22.7583 24.4608 22.465C24.2554 22.1717 23.9034 21.97 23.4048 21.86L22.0408 22.003V25.743Z" fill="white" fill-opacity="0.7"/>
<path d="M22.5134 40.336H23.7454C24.0974 40.336 24.3504 40.2443 24.5044 40.061C24.6658 39.8777 24.7574 39.5733 24.7794 39.148H24.9994C24.9848 39.28 24.9701 39.3973 24.9554 39.5C24.9481 39.5953 24.9408 39.6943 24.9334 39.797C24.9261 39.8923 24.9188 39.995 24.9114 40.105C24.9114 40.215 24.9114 40.347 24.9114 40.501C24.9114 40.6477 24.9114 40.7833 24.9114 40.908C24.9188 41.0327 24.9261 41.1537 24.9334 41.271C24.9408 41.3883 24.9481 41.5057 24.9554 41.623C24.9701 41.733 24.9848 41.854 24.9994 41.986H24.7794C24.7574 41.5387 24.6658 41.2087 24.5044 40.996C24.3504 40.7833 24.1011 40.677 23.7564 40.677H22.5134V44.351H24.2844C24.5704 44.351 24.8088 44.3253 24.9994 44.274C25.1901 44.2153 25.3514 44.1127 25.4834 43.966C25.6228 43.812 25.7401 43.5993 25.8354 43.328C25.9381 43.0567 26.0408 42.701 26.1434 42.261H26.3964C26.2791 42.7083 26.1984 43.0823 26.1544 43.383C26.1178 43.6763 26.0994 43.9367 26.0994 44.164C26.0994 44.3327 26.1031 44.4793 26.1104 44.604C26.1178 44.7287 26.1471 44.8937 26.1984 45.099H25.9784C25.9564 45.011 25.9088 44.9413 25.8354 44.89C25.7621 44.8387 25.6741 44.7983 25.5714 44.769C25.4761 44.7397 25.3661 44.7213 25.2414 44.714C25.1241 44.7067 25.0068 44.703 24.8894 44.703H22.0184C21.8351 44.703 21.6151 44.714 21.3584 44.736C21.1091 44.7507 20.8268 44.7727 20.5114 44.802V44.604C20.8488 44.5967 21.1018 44.5343 21.2704 44.417C21.4464 44.2923 21.5344 44.054 21.5344 43.702V37.663C21.5344 37.311 21.4538 37.0763 21.2924 36.959C21.1311 36.8343 20.8818 36.7683 20.5444 36.761V36.552C20.8011 36.5887 21.0651 36.6143 21.3364 36.629C21.6078 36.6437 21.8351 36.651 22.0184 36.651H24.6034C24.7208 36.651 24.8381 36.6473 24.9554 36.64C25.0801 36.6327 25.1901 36.618 25.2854 36.596C25.3881 36.5667 25.4724 36.5263 25.5384 36.475C25.6044 36.4163 25.6484 36.343 25.6704 36.255H25.9014C25.8648 36.4237 25.8428 36.5703 25.8354 36.695C25.8281 36.8197 25.8244 36.9517 25.8244 37.091C25.8244 37.3037 25.8318 37.5273 25.8464 37.762C25.8684 37.9967 25.9308 38.2827 26.0334 38.62H25.7804C25.6998 38.3047 25.6191 38.0443 25.5384 37.839C25.4578 37.6263 25.3551 37.4613 25.2304 37.344C25.1131 37.2193 24.9628 37.135 24.7794 37.091C24.6034 37.0397 24.3724 37.014 24.0864 37.014H22.5134V40.336Z" fill="white" fill-opacity="0.9"/>
<path d="M24.629 56.942H21.637L20.933 58.856C20.8963 58.9807 20.878 59.0687 20.878 59.12C20.878 59.274 20.9586 59.3913 21.12 59.472C21.2886 59.5453 21.593 59.5893 22.033 59.604V59.802C21.7616 59.78 21.494 59.758 21.23 59.736C20.966 59.714 20.7276 59.703 20.515 59.703C20.3243 59.703 20.1006 59.714 19.844 59.736C19.5946 59.758 19.3416 59.78 19.085 59.802V59.604C19.437 59.5893 19.723 59.5307 19.943 59.428C20.163 59.318 20.3243 59.1347 20.427 58.878L23.342 51.376L26.499 58.79C26.5503 58.9073 26.6053 59.0173 26.664 59.12C26.73 59.2153 26.8143 59.2997 26.917 59.373C27.0196 59.4463 27.1516 59.505 27.313 59.549C27.4743 59.5857 27.676 59.604 27.918 59.604V59.802C27.5953 59.7727 27.2983 59.7507 27.027 59.736C26.7556 59.714 26.4476 59.703 26.103 59.703C25.8463 59.703 25.5566 59.714 25.234 59.736C24.9113 59.758 24.6216 59.78 24.365 59.802V59.604C25.091 59.604 25.454 59.4463 25.454 59.131C25.454 59.0283 25.421 58.9037 25.355 58.757L24.629 56.942ZM21.78 56.535H24.464L23.067 53.037L21.78 56.535ZM23.2177 74.802L19.8297 68.147V73.713C19.8297 73.8817 19.859 74.0247 19.9177 74.142C19.9837 74.252 20.0753 74.3437 20.1927 74.417C20.31 74.483 20.4457 74.5307 20.5997 74.56C20.761 74.5893 20.937 74.604 21.1277 74.604V74.802C20.871 74.7727 20.6033 74.7507 20.3247 74.736C20.046 74.714 19.7857 74.703 19.5437 74.703C19.309 74.703 19.0523 74.714 18.7737 74.736C18.5023 74.7507 18.2383 74.7727 17.9817 74.802V74.604C18.165 74.604 18.3337 74.5893 18.4877 74.56C18.649 74.5307 18.7883 74.483 18.9057 74.417C19.023 74.3437 19.1147 74.252 19.1807 74.142C19.254 74.0247 19.2907 73.878 19.2907 73.702V67.663C19.2907 67.487 19.2687 67.344 19.2247 67.234C19.188 67.1167 19.122 67.025 19.0267 66.959C18.9387 66.8857 18.8213 66.8343 18.6747 66.805C18.528 66.7757 18.3483 66.761 18.1357 66.761V66.552C18.407 66.5887 18.66 66.6143 18.8947 66.629C19.1367 66.6437 19.386 66.651 19.6427 66.651H20.1047L23.5147 73.383L26.8037 66.651H27.2217C27.7423 66.651 28.2887 66.618 28.8607 66.552V66.761C28.4207 66.7683 28.109 66.8307 27.9257 66.948C27.7497 67.0653 27.6617 67.2963 27.6617 67.641V73.713C27.6617 73.8817 27.6837 74.0247 27.7277 74.142C27.779 74.252 27.856 74.3437 27.9587 74.417C28.0687 74.483 28.208 74.5307 28.3767 74.56C28.5527 74.5893 28.769 74.604 29.0257 74.604V74.802C28.703 74.7727 28.3913 74.7507 28.0907 74.736C27.7973 74.714 27.5003 74.703 27.1997 74.703C26.8917 74.703 26.591 74.714 26.2977 74.736C26.0117 74.7507 25.7073 74.7727 25.3847 74.802V74.604C25.876 74.5967 26.2243 74.5307 26.4297 74.406C26.635 74.2813 26.7377 74.0467 26.7377 73.702V67.993L23.3717 74.802H23.2177Z" fill="white"/>
<path d="M39 5L41.3868 1.26184e-07L35.6132 -1.26184e-07L38 5L39 5ZM38 417L35.6132 422L41.3867 422L39 417L38 417ZM38 4.5L38 417.5L39 417.5L39 4.5L38 4.5Z" fill="url(#paint0_linear_795_1401)"/>
<defs>
<linearGradient id="paint0_linear_795_1401" x1="38.5003" y1="211" x2="39.0003" y2="144" gradientUnits="userSpaceOnUse">
<stop offset="0.742137" stop-color="#DAD9D9" stop-opacity="0"/>
<stop offset="1" stop-color="#403F3F"/>
</linearGradient>
</defs>
</svg>
