<svg width="24" height="24" viewBox="0 0 24 24" fill="none" xmlns="http://www.w3.org/2000/svg">
<path d="M4.10067 17.8125C4.15692 17.6072 4.03364 17.3217 3.91599 17.1159C3.87951 17.0545 3.83977 16.995 3.79692 16.9378C2.78783 15.4075 2.24998 13.6147 2.25005 11.7816C2.23317 6.51984 6.5963 2.25 11.9916 2.25C16.6969 2.25 20.6251 5.50969 21.5424 9.83672C21.6801 10.4782 21.7497 11.1325 21.7501 11.7886C21.7501 17.0578 17.5552 21.3947 12.1599 21.3947C11.3016 21.3947 10.1443 21.1791 9.51286 21.0023C8.88146 20.8256 8.25099 20.5913 8.08833 20.5284C7.92181 20.4645 7.74499 20.4316 7.56661 20.4314C7.3721 20.4307 7.17947 20.4695 7.00036 20.5453L3.82036 21.6928C3.75087 21.7228 3.67722 21.7421 3.60192 21.75C3.54237 21.7498 3.48344 21.7378 3.42855 21.7147C3.37366 21.6916 3.32389 21.6579 3.28213 21.6154C3.24037 21.573 3.20744 21.5226 3.18525 21.4674C3.16307 21.4121 3.15206 21.353 3.15286 21.2934C3.15677 21.2412 3.1662 21.1895 3.18099 21.1392L4.10067 17.8125Z" stroke="white" stroke-miterlimit="10" stroke-linecap="round"/>
<path d="M7.5 12.5C7.77614 12.5 8 12.2761 8 12C8 11.7239 7.77614 11.5 7.5 11.5C7.22386 11.5 7 11.7239 7 12C7 12.2761 7.22386 12.5 7.5 12.5Z" fill="white"/>
<path d="M12 12.5C12.2761 12.5 12.5 12.2761 12.5 12C12.5 11.7239 12.2761 11.5 12 11.5C11.7239 11.5 11.5 11.7239 11.5 12C11.5 12.2761 11.7239 12.5 12 12.5Z" fill="white"/>
<path d="M16.5 12.5C16.7761 12.5 17 12.2761 17 12C17 11.7239 16.7761 11.5 16.5 11.5C16.2239 11.5 16 11.7239 16 12C16 12.2761 16.2239 12.5 16.5 12.5Z" fill="white"/>
</svg>
